<?xml version="1.0" encoding="utf-8"?>
<!-- Generator: Adobe Illustrator 18.0.0, SVG Export Plug-In . SVG Version: 6.00 Build 0)  -->
<!DOCTYPE svg PUBLIC "-//W3C//DTD SVG 1.1//EN" "http://www.w3.org/Graphics/SVG/1.1/DTD/svg11.dtd">
<svg version="1.1" id="Layer_1" xmlns="http://www.w3.org/2000/svg" xmlns:xlink="http://www.w3.org/1999/xlink" x="0px" y="0px"
	 width="154.5px" height="30px" viewBox="0 0 154.5 30" enable-background="new 0 0 154.5 30" xml:space="preserve">
<g>
	<path fill-rule="evenodd" clip-rule="evenodd" fill="#F8BB64" d="M0,14.6c0,8.1,6.3,14.6,14.1,14.6c2.2,0,4.3-0.5,6.2-1.5
		C22.4,29.6,29,30,29,30c-3.3-1.7-4.5-3.8-5-4.9c2.6-2.7,4.2-6.4,4.2-10.5C28.3,6.6,22,0,14.1,0C6.3,0,0,6.6,0,14.6z"/>
	<path fill-rule="evenodd" clip-rule="evenodd" fill="#215A7F" d="M8.6,19.7v1.1H7.5v-1.1H8.6z M19.1,6.1c-0.4,0.4-3,2.9-3,3.2
		c0,0.2,0,0.3,0.3,0.5c0.1,0.1,2.1,2.3,2.4,2.3c0.3,0,2.8-2.7,3.2-3.1c0,0,0.1,0.1,0.1,0.1c0.1,0.4,0.2,1.2,0.2,1.3
		c0,2.7-1.8,4.4-4.4,4.4c-0.1,0-0.6,0-0.8-0.1c-0.5-0.1-0.9-0.2-1.4-0.4c-2,2.4-4,5-6.1,7.4c-0.6,0.7-1,0.7-1.6,0.7
		c-0.8,0-1.7-0.4-2.1-1.5c0-0.1-0.1-0.3-0.1-0.4v-0.9c0-0.5,0.6-1.2,1-1.6c2.3-1.9,7-5.8,7-5.9c0-0.1-0.5-1.5-0.5-1.6V9.7
		c0.5-2.9,2.3-3.8,4.4-3.8C18.2,5.8,18.7,5.9,19.1,6.1z"/>
</g>
<g>
	<path fill="#F3F3F3" d="M42.1,3.3c1.4,0,2.4,0.4,3.4,1.3c0.1,0.1,0.1,0.3,0,0.4l-0.9,0.9c-0.1,0.1-0.2,0.1-0.3,0
		c-0.6-0.5-1.4-0.8-2.2-0.8c-1.8,0-3.1,1.5-3.1,3.3c0,1.8,1.3,3.2,3.1,3.2c0.8,0,1.6-0.3,2.1-0.8c0.1-0.1,0.3-0.1,0.3,0l0.9,0.9
		c0.1,0.1,0.1,0.3,0,0.4c-1,0.9-2.2,1.4-3.4,1.4c-2.8,0-5.1-2.2-5.1-5C37.1,5.6,39.3,3.3,42.1,3.3z"/>
	<path fill="#F3F3F3" d="M46.8,12.9l4.4-9.4c0-0.1,0.1-0.2,0.2-0.2h0.1c0.1,0,0.2,0.1,0.2,0.2l4.3,9.4c0.1,0.2,0,0.4-0.2,0.4h-1.2
		c-0.2,0-0.3-0.1-0.4-0.3l-0.7-1.5h-4.2L48.6,13c-0.1,0.1-0.2,0.3-0.4,0.3H47C46.8,13.2,46.7,13.1,46.8,12.9z M52.8,9.9l-1.4-3.1h0
		L50,9.9H52.8z"/>
	<path fill="#F3F3F3" d="M59.1,3.5c0-0.1,0.1-0.2,0.3-0.2h0.2c0.1,0,0.2,0.1,0.2,0.1l3.1,6.6c0,0,0,0,0,0L66,3.4
		c0-0.1,0.1-0.1,0.2-0.1h0.2c0.2,0,0.2,0.1,0.3,0.2l1.7,9.4c0,0.2-0.1,0.3-0.3,0.3h-1.3c-0.1,0-0.2-0.1-0.3-0.2l-0.8-5.3
		c0,0,0,0,0,0l-2.5,5.5c0,0.1-0.1,0.2-0.2,0.2h-0.3c-0.1,0-0.2-0.1-0.2-0.2L60,7.7c0,0,0,0,0,0L59.2,13c0,0.1-0.1,0.2-0.3,0.2h-1.3
		c-0.2,0-0.3-0.1-0.3-0.3L59.1,3.5z"/>
	<path fill="#F3F3F3" d="M71,3.7c0-0.1,0.1-0.3,0.3-0.3h3.3c1.7,0,3.1,1.4,3.1,3.1c0,1.7-1.4,3.2-3.1,3.2h-1.8V13
		c0,0.1-0.1,0.3-0.3,0.3h-1.3c-0.2,0-0.3-0.1-0.3-0.3V3.7z M74.4,8c0.8,0,1.4-0.6,1.4-1.5c0-0.8-0.7-1.4-1.4-1.4h-1.6V8H74.4z"/>
	<path fill="#F3F3F3" d="M79.8,3.7c0-0.1,0.1-0.3,0.3-0.3h1.3c0.2,0,0.3,0.1,0.3,0.3v5.7c0,1.2,0.8,2.1,2,2.1c1.2,0,2-0.9,2-2.1V3.7
		c0-0.1,0.1-0.3,0.3-0.3h1.3c0.1,0,0.3,0.1,0.3,0.3v5.8c0,2.1-1.7,3.9-3.9,3.9c-2.2,0-3.9-1.7-3.9-3.9V3.7z"/>
	<path fill="#F3F3F3" d="M90.1,11.9l0.5-0.9c0.1-0.2,0.3-0.2,0.5-0.1c0.1,0,1.2,0.9,2.1,0.9c0.7,0,1.3-0.5,1.3-1.1
		c0-0.7-0.6-1.2-1.8-1.7c-1.3-0.5-2.6-1.4-2.6-3c0-1.2,0.9-2.7,3.2-2.7c1.4,0,2.5,0.7,2.8,0.9c0.1,0.1,0.2,0.3,0.1,0.5l-0.5,0.8
		c-0.1,0.2-0.3,0.3-0.5,0.2c-0.1-0.1-1.2-0.8-1.9-0.8c-0.8,0-1.2,0.5-1.2,1c0,0.7,0.5,1.1,1.7,1.6c1.4,0.5,2.9,1.4,2.9,3.2
		c0,1.4-1.2,2.8-3.2,2.8c-1.8,0-2.8-0.8-3.1-1.1C90.1,12.2,90,12.1,90.1,11.9z"/>
	<path fill="#F8B964" d="M99.1,3.7c0-0.1,0.1-0.3,0.3-0.3h3.1c1.7,0,2.9,1.1,2.9,2.6c0,1.1-0.8,1.8-1.5,2.2c0.7,0.3,1.8,1,1.8,2.3
		c0,1.6-1.3,2.7-3.1,2.7h-3.3c-0.2,0-0.3-0.1-0.3-0.3V3.7z M102.6,12c0.9,0,1.5-0.7,1.5-1.5c0-0.9-0.8-1.5-1.7-1.5h-1.9v3H102.6z
		 M102.4,7.7c0.9,0,1.4-0.7,1.4-1.5c0-0.9-0.5-1.4-1.4-1.4h-1.9v2.9H102.4z"/>
	<path fill="#F8B964" d="M108.4,3.7c0-0.1,0.1-0.3,0.3-0.3h0.9c0.2,0,0.3,0.1,0.3,0.3v5.8c0,1.4,0.9,2.5,2.3,2.5
		c1.4,0,2.4-1.1,2.4-2.5V3.7c0-0.1,0.1-0.3,0.3-0.3h0.9c0.1,0,0.3,0.1,0.3,0.3v5.9c0,2.1-1.6,3.8-3.8,3.8c-2.2,0-3.8-1.7-3.8-3.8
		V3.7z"/>
	<path fill="#F8B964" d="M119.3,3.7c0-0.1,0.1-0.3,0.3-0.3h3.1c1.7,0,2.9,1.1,2.9,2.6c0,1.1-0.8,1.8-1.5,2.2c0.7,0.3,1.8,1,1.8,2.3
		c0,1.6-1.3,2.7-3.1,2.7h-3.3c-0.2,0-0.3-0.1-0.3-0.3V3.7z M122.8,12c0.9,0,1.5-0.7,1.5-1.5c0-0.9-0.8-1.5-1.7-1.5h-1.9v3H122.8z
		 M122.6,7.7c0.9,0,1.4-0.7,1.4-1.5c0-0.9-0.5-1.4-1.4-1.4h-1.9v2.9H122.6z"/>
	<path fill="#F8B964" d="M128.7,3.7c0-0.1,0.1-0.3,0.3-0.3h3.1c1.7,0,2.9,1.1,2.9,2.6c0,1.1-0.8,1.8-1.5,2.2c0.7,0.3,1.8,1,1.8,2.3
		c0,1.6-1.3,2.7-3.1,2.7h-3.3c-0.2,0-0.3-0.1-0.3-0.3V3.7z M132.2,12c0.9,0,1.5-0.7,1.5-1.5c0-0.9-0.8-1.5-1.7-1.5h-1.9v3H132.2z
		 M132,7.7c0.9,0,1.4-0.7,1.4-1.5c0-0.9-0.5-1.4-1.4-1.4h-1.9v2.9H132z"/>
	<path fill="#F8B964" d="M138.1,3.7c0-0.1,0.1-0.3,0.3-0.3h0.9c0.1,0,0.3,0.1,0.3,0.3v8.2h3.8c0.2,0,0.3,0.1,0.3,0.3V13
		c0,0.1-0.1,0.3-0.3,0.3h-5c-0.2,0-0.3-0.1-0.3-0.3V3.7z"/>
	<path fill="#F8B964" d="M145.8,3.7c0-0.1,0.1-0.3,0.3-0.3h5.6c0.2,0,0.3,0.1,0.3,0.3v0.8c0,0.1-0.1,0.3-0.3,0.3h-4.4v2.9h3.7
		c0.1,0,0.3,0.1,0.3,0.3v0.8c0,0.2-0.1,0.3-0.3,0.3h-3.7v3h4.4c0.2,0,0.3,0.1,0.3,0.3V13c0,0.1-0.1,0.3-0.3,0.3H146
		c-0.2,0-0.3-0.1-0.3-0.3V3.7z"/>
</g>
<g>
	<path fill="#ABABAB" d="M37,26.4l4.3-9.4c0-0.1,0.2-0.2,0.2-0.2h0.1c0.1,0,0.2,0.1,0.2,0.2l4.3,9.4c0.1,0.2,0,0.4-0.2,0.4h-0.9
		c-0.2,0-0.3-0.1-0.3-0.2l-0.9-1.9h-4.6c-0.3,0.6-0.6,1.3-0.9,1.9c0,0.1-0.2,0.2-0.3,0.2h-0.9C37.1,26.7,37,26.6,37,26.4z
		 M43.4,23.4l-1.7-3.8h-0.1l-1.7,3.8H43.4z"/>
	<path fill="#ABABAB" d="M48.3,17.2c0-0.1,0.1-0.3,0.3-0.3h3.2c2.7,0,4.9,2.2,4.9,4.9c0,2.7-2.2,4.9-4.9,4.9h-3.2
		c-0.1,0-0.3-0.1-0.3-0.3V17.2z M51.6,25.4c2.1,0,3.6-1.5,3.6-3.6c0-2.1-1.5-3.6-3.6-3.6h-1.8v7.1H51.6z"/>
	<path fill="#ABABAB" d="M60.5,17c0-0.1,0.1-0.2,0.3-0.2H61c0.1,0,0.2,0.1,0.2,0.2l2.9,7.2h0.1l2.9-7.2c0-0.1,0.1-0.2,0.2-0.2h0.2
		c0.1,0,0.2,0.1,0.3,0.2l1.7,9.4c0,0.2-0.1,0.3-0.3,0.3h-0.9c-0.1,0-0.2-0.1-0.3-0.2l-1-6.3c0,0,0,0,0,0l-2.5,6.4
		c0,0.1-0.1,0.2-0.2,0.2H64c-0.1,0-0.2-0.1-0.2-0.2l-2.5-6.4c0,0,0,0-0.1,0l-1,6.3c0,0.1-0.1,0.2-0.3,0.2H59c-0.2,0-0.3-0.1-0.3-0.3
		L60.5,17z"/>
	<path fill="#ABABAB" d="M72.3,17.2c0-0.1,0.1-0.3,0.3-0.3h0.9c0.1,0,0.3,0.1,0.3,0.3v9.3c0,0.1-0.1,0.3-0.3,0.3h-0.9
		c-0.1,0-0.3-0.1-0.3-0.3V17.2z"/>
	<path fill="#ABABAB" d="M77.2,17.1c0-0.1,0.1-0.3,0.3-0.3h0.3l6.1,7h0v-6.6c0-0.1,0.1-0.3,0.3-0.3H85c0.1,0,0.3,0.1,0.3,0.3v9.4
		c0,0.1-0.1,0.3-0.3,0.3h-0.4l-6.1-7.2h0v6.8c0,0.1-0.1,0.3-0.3,0.3h-0.9c-0.1,0-0.3-0.1-0.3-0.3V17.1z"/>
	<path fill="#ABABAB" d="M88.7,17.2c0-0.1,0.1-0.3,0.3-0.3h3.2c1.7,0,3.1,1.4,3.1,3.1c0,1.7-1.4,3.2-3.1,3.2h-2v3.3
		c0,0.1-0.1,0.3-0.3,0.3H89c-0.2,0-0.3-0.1-0.3-0.3V17.2z M92.1,21.8c1,0,1.8-0.8,1.8-1.8c0-1-0.8-1.7-1.8-1.7h-1.9v3.5H92.1z"/>
	<path fill="#ABABAB" d="M96.4,26.4l4.3-9.4c0-0.1,0.2-0.2,0.2-0.2h0.1c0.1,0,0.2,0.1,0.2,0.2l4.3,9.4c0.1,0.2,0,0.4-0.2,0.4h-0.9
		c-0.2,0-0.3-0.1-0.3-0.2l-0.9-1.9h-4.6c-0.3,0.6-0.6,1.3-0.9,1.9c0,0.1-0.2,0.2-0.3,0.2h-0.9C96.4,26.7,96.3,26.6,96.4,26.4z
		 M102.8,23.4l-1.7-3.8H101l-1.7,3.8H102.8z"/>
	<path fill="#ABABAB" d="M107.7,17.1c0-0.1,0.1-0.3,0.3-0.3h0.3l6.1,7h0v-6.6c0-0.1,0.1-0.3,0.3-0.3h0.9c0.1,0,0.3,0.1,0.3,0.3v9.4
		c0,0.1-0.1,0.3-0.3,0.3h-0.4l-6.1-7.2h0v6.8c0,0.1-0.1,0.3-0.3,0.3H108c-0.1,0-0.3-0.1-0.3-0.3V17.1z"/>
	<path fill="#ABABAB" d="M119.2,17.2c0-0.1,0.1-0.3,0.3-0.3h5.6c0.2,0,0.3,0.1,0.3,0.3V18c0,0.1-0.1,0.3-0.3,0.3h-4.4v2.9h3.7
		c0.1,0,0.3,0.1,0.3,0.3v0.8c0,0.2-0.1,0.3-0.3,0.3h-3.7v3h4.4c0.2,0,0.3,0.1,0.3,0.3v0.8c0,0.1-0.1,0.3-0.3,0.3h-5.6
		c-0.2,0-0.3-0.1-0.3-0.3V17.2z"/>
	<path fill="#ABABAB" d="M128.2,17.2c0-0.1,0.1-0.3,0.3-0.3h0.9c0.1,0,0.3,0.1,0.3,0.3v8.2h3.8c0.2,0,0.3,0.1,0.3,0.3v0.8
		c0,0.1-0.1,0.3-0.3,0.3h-5c-0.2,0-0.3-0.1-0.3-0.3V17.2z"/>
</g>
</svg>
