<?xml version="1.0" standalone="no"?> 
<!DOCTYPE svg PUBLIC "-//W3C//DTD SVG 1.1//EN" "http://www.w3.org/Graphics/SVG/1.1/DTD/svg11.dtd" >
<svg xmlns="http://www.w3.org/2000/svg">
<defs>
  <font id="eb" horiz-adv-x="85">
    <font-face font-family="eb"
      units-per-em="100" ascent="100"
      descent="0"
      font-weight="100" />
    <missing-glyph horiz-adv-x="0" />
    <glyph glyph-name="bubbles-menu"
      unicode="&#xE140;"
      horiz-adv-x="104.54545454545456" d=" M13.8508210454545 0.8133972727271C20.9827065909091 0.8133972727271 26.7642421818182 6.594932818182 26.7642421818182 13.7268184090911C26.7642421818182 20.8587039545457 20.9827065909091 26.640239527273 13.8508210454545 26.640239527273C6.7189355 26.640239527273 0.9373999090909 20.8587039545457 0.9373999090909 13.7268184090911C0.9373999090909 6.594932818182 6.7189355 0.8133972727271 13.8508210454545 0.8133972727271z M22.9987912272728 12.2009571818182L31.4098968636363 0.3514324545454C31.4098968636363 0.3514324545454 25.4502969545455 1.5489274090907 22.4704970454545 2.1476748636365C20.5624684090909 2.5310654999998 16.7464111818182 3.297846727273 16.7464111818182 3.297846727273L22.9987912272728 12.2009571818182z M50.2144574090909 0.8133972727271C57.3463429545455 0.8133972727271 63.1278785454546 6.594932818182 63.1278785454546 13.7268184090911C63.1278785454546 20.8587039545457 57.3463429545455 26.640239527273 50.2144574090909 26.640239527273C43.0825718636363 26.640239527273 37.3010362727273 20.8587039545457 37.3010362727273 13.7268184090911C37.3010362727273 6.594932818182 43.0825718636363 0.8133972727271 50.2144574090909 0.8133972727271z M59.3624275909091 12.2009571818182L67.7735332272727 0.3514324545454C67.7735332272727 0.3514324545454 61.8139333181818 1.5489274090907 58.8341334090909 2.1476748636365C56.9261047727273 2.5310654999998 53.1100475454546 3.297846727273 53.1100475454546 3.297846727273L59.3624275909091 12.2009571818182z M86.5780937727273 0.8133972727271C93.7099793181819 0.8133972727271 99.4915149090909 6.594932818182 99.4915149090909 13.7268184090911C99.4915149090909 20.8587039545457 93.7099793181819 26.640239527273 86.5780937727273 26.640239527273C79.4462082272727 26.640239527273 73.6646726363636 20.8587039545457 73.6646726363636 13.7268184090911C73.6646726363636 6.594932818182 79.4462082272727 0.8133972727271 86.5780937727273 0.8133972727271z M95.7260639545455 12.2009571818182L104.1371695909091 0.3514324545454C104.1371695909091 0.3514324545454 98.1775696818182 1.5489274090907 95.1977697727273 2.1476748636365C93.2897411363637 2.5310654999998 89.4736839090909 3.297846727273 89.4736839090909 3.297846727273L95.7260639545455 12.2009571818182z M13.8508210454545 37.1770336363635C20.9827065909091 37.1770336363635 26.7642421818182 42.9585691818183 26.7642421818182 50.0904547727275C26.7642421818182 57.2223403181821 20.9827065909091 63.0038758909093 13.8508210454545 63.0038758909093C6.7189355 63.0038758909093 0.9373999090909 57.2223403181821 0.9373999090909 50.0904547727275C0.9373999090909 42.9585691818183 6.7189355 37.1770336363635 13.8508210454545 37.1770336363635z M22.9987912272728 48.5645935454546L31.4098968636363 36.7150688181818C31.4098968636363 36.7150688181818 25.4502969545455 37.912563772727 22.4704970454545 38.5113112272729C20.5624684090909 38.8947018636362 16.7464111818182 39.6614830909093 16.7464111818182 39.6614830909093L22.9987912272728 48.5645935454546z M50.2144574090909 37.1770336363635C57.3463429545455 37.1770336363635 63.1278785454546 42.9585691818183 63.1278785454546 50.0904547727275C63.1278785454546 57.2223403181821 57.3463429545455 63.0038758909093 50.2144574090909 63.0038758909093C43.0825718636363 63.0038758909093 37.3010362727273 57.2223403181821 37.3010362727273 50.0904547727275C37.3010362727273 42.9585691818183 43.0825718636363 37.1770336363635 50.2144574090909 37.1770336363635z M59.3624275909091 48.5645935454546L67.7735332272727 36.7150688181818C67.7735332272727 36.7150688181818 61.8139333181818 37.912563772727 58.8341334090909 38.5113112272729C56.9261047727273 38.8947018636362 53.1100475454546 39.6614830909093 53.1100475454546 39.6614830909093L59.3624275909091 48.5645935454546z M86.5780937727273 37.1770336363635C93.7099793181819 37.1770336363635 99.4915149090909 42.9585691818183 99.4915149090909 50.0904547727275C99.4915149090909 57.2223403181821 93.7099793181819 63.0038758909093 86.5780937727273 63.0038758909093C79.4462082272727 63.0038758909093 73.6646726363636 57.2223403181821 73.6646726363636 50.0904547727275C73.6646726363636 42.9585691818183 79.4462082272727 37.1770336363635 86.5780937727273 37.1770336363635z M95.7260639545455 48.5645935454546L104.1371695909091 36.7150688181818C104.1371695909091 36.7150688181818 98.1775696818182 37.912563772727 95.1977697727273 38.5113112272729C93.2897411363637 38.8947018636362 89.4736839090909 39.6614830909093 89.4736839090909 39.6614830909093L95.7260639545455 48.5645935454546z M13.8508210454545 73.5406699999999C20.9827065909091 73.5406699999999 26.7642421818182 79.3222055454547 26.7642421818182 86.4540911363638C26.7642421818182 93.5859766818184 20.9827065909091 99.3675122545457 13.8508210454545 99.3675122545457C6.7189355 99.3675122545457 0.9373999090909 93.5859766818184 0.9373999090909 86.4540911363638C0.9373999090909 79.3222055454547 6.7189355 73.5406699999999 13.8508210454545 73.5406699999999z M22.9987912272728 84.928229909091L31.4098968636363 73.0787051818182C31.4098968636363 73.0787051818182 25.4502969545455 74.2762001363634 22.4704970454545 74.8749475909092C20.5624684090909 75.2583382272726 16.7464111818182 76.0251194545457 16.7464111818182 76.0251194545457L22.9987912272728 84.928229909091z M50.2144574090909 73.5406699999999C57.3463429545455 73.5406699999999 63.1278785454546 79.3222055454547 63.1278785454546 86.4540911363638C63.1278785454546 93.5859766818184 57.3463429545455 99.3675122545457 50.2144574090909 99.3675122545457C43.0825718636363 99.3675122545457 37.3010362727273 93.5859766818184 37.3010362727273 86.4540911363638C37.3010362727273 79.3222055454547 43.0825718636363 73.5406699999999 50.2144574090909 73.5406699999999z M59.3624275909091 84.928229909091L67.7735332272727 73.0787051818182C67.7735332272727 73.0787051818182 61.8139333181818 74.2762001363634 58.8341334090909 74.8749475909092C56.9261047727273 75.2583382272726 53.1100475454546 76.0251194545457 53.1100475454546 76.0251194545457L59.3624275909091 84.928229909091z M86.5780937727273 73.5406699999999C93.7099793181819 73.5406699999999 99.4915149090909 79.3222055454547 99.4915149090909 86.4540911363638C99.4915149090909 93.5859766818184 93.7099793181819 99.3675122545457 86.5780937727273 99.3675122545457C79.4462082272727 99.3675122545457 73.6646726363636 93.5859766818184 73.6646726363636 86.4540911363638C73.6646726363636 79.3222055454547 79.4462082272727 73.5406699999999 86.5780937727273 73.5406699999999z M95.7260639545455 84.928229909091L104.1371695909091 73.0787051818182C104.1371695909091 73.0787051818182 98.1775696818182 74.2762001363634 95.1977697727273 74.8749475909092C93.2897411363637 75.2583382272726 89.4736839090909 76.0251194545457 89.4736839090909 76.0251194545457L95.7260639545455 84.928229909091z" />
    <glyph glyph-name="bubble-widget"
      unicode="&#xE150;"
      horiz-adv-x="100" d=" M0 51.2240185714286C0 24.2725171428572 21.8430825714286 2.4249428571428 48.7697307142857 2.4249428571428C56.4531104285714 2.4249428571428 63.6954502857143 4.2032328571429 70.1485608571429 7.3441114285714C77.3212627142857 1.2933028571428 100 0 100 0C88.718663 5.7736714285714 84.4243268571429 12.7944571428571 82.8922934285714 16.3510385714285C91.9452181428571 25.2194 97.5394614285714 37.5519628571429 97.5394614285714 51.2240185714286C97.5394614285714 78.1524242857143 75.7195914285714 100 48.7697307142857 100C21.8430825714286 100 0 78.1524242857143 0 51.2240185714286" />
    <glyph glyph-name="views"
      unicode="&#xE600;"
      horiz-adv-x="87.5" d=" M43.465625 78.159375C24.103125 78.159375 2.559375 61.375 2.559375 50S24.10625 21.840625 43.465625 21.840625S84.36875 38.625 84.36875 50S62.825 78.159375 43.4625 78.159375zM43.465625 35.225C35.3125 35.225 28.690625 41.853125 28.690625 50S35.3125 64.778125 43.465625 64.778125C51.621875 64.778125 58.25 58.14375 58.25 50S51.621875 35.225 43.465625 35.225z" />
    <glyph glyph-name="explore"
      unicode="&#xE601;"
      horiz-adv-x="87.5" d=" M59.296875 84.175C58.475 92.446875 57.015625 94.86875 54.59375 96.615625C53.971875 97.05 53.2875 97.484375 52.559375 97.875C49.95625 99.275 47.00625 100.003125 43.8 100.003125H43.465625C40.08125 100.003125 37.16875 99.28125 34.559375 97.875C33.884375 97.534375 33.153125 97.1 32.43125 96.571875C29.76875 94.671875 28.55625 91.728125 27.88125 84.171875C11.56875 77.88125 0 62.05625 0 43.56875C0 19.559375 19.553125 0.003125 43.559375 0.003125S87.1125 19.5625 87.1125 43.56875C87.1125 62.009375 75.54375 77.834375 59.296875 84.178125zM36.6875 90.70625C37.121875 90.99375 37.55625 91.240625 37.99375 91.48125C39.540625 92.35625 41.33125 92.746875 43.31875 92.746875H43.8C45.78125 92.746875 47.575 92.359375 49.125 91.4875C49.553125 91.246875 49.99375 91.00625 50.4375 90.7125C50.965625 90.325 51.39375 88.484375 51.69375 86.35625C49.078125 86.884375 46.321875 87.125 43.55625 87.125S38.04375 86.884375 35.41875 86.35C35.7125 88.484375 36.1 90.3125 36.684375 90.70625zM43.559375 7.265625C23.51875 7.265625 7.259375 23.53125 7.259375 43.565625C7.259375 57.84375 15.54375 70.190625 27.546875 76.090625C29.76875 77.240625 32.184375 78.125 34.7 78.746875C37.509375 79.46875 40.509375 79.865625 43.559375 79.865625S49.603125 79.478125 52.41875 78.746875C54.921875 78.11875 57.35 77.240625 59.559375 76.090625C71.584375 70.18125 79.853125 57.84375 79.853125 43.565625C79.859375 23.53125 63.6 7.265625 43.559375 7.265625zM65.19375 65.2C64.225 66.215625 62.678125 66.559375 61.365625 66.021875L34.11875 55.8125C33.784375 55.71875 33.490625 55.61875 33.203125 55.425C33.009375 55.33125 32.815625 55.2375 32.675 55.084375C32.528125 54.990625 32.38125 54.84375 32.234375 54.65C31.9 54.3625 31.659375 53.96875 31.5125 53.53125L31.31875 52.95L21.053125 25.75C20.571875 24.396875 20.9125 22.9 21.928125 21.875C22.609375 21.2 23.528125 20.8125 24.490625 20.8125C24.925 20.8125 25.321875 20.925 25.75625 21.065625L53.53125 31.51875C53.83125 31.6125 54.1125 31.759375 54.353125 31.946875C54.546875 32.0875 54.7875 32.28125 54.934375 32.475C55.36875 32.903125 55.6625 33.484375 55.809375 34.115625L66.01875 61.375C66.553125 62.6875 66.20625 64.190625 65.190625 65.203125zM30.69375 30.684375L36.3 45.640625L45.640625 36.3L30.69375 30.6875zM50.765625 41.484375L41.471875 50.771875L56.428125 56.43125L50.76875 41.484375z" />
    <glyph glyph-name="event"
      unicode="&#xE602;"
      horiz-adv-x="100" d=" M74.275 89.58125V93.20625C74.275 95.034375 72.790625 96.51875 70.9625 96.51875S67.65 95.034375 67.65 93.20625V90.11875H60.75V93.20625C60.75 95.034375 59.265625 96.51875 57.4375 96.51875S54.125 95.034375 54.125 93.20625V90.11875H47.23125V93.20625C47.23125 95.034375 45.746875 96.51875 43.91875 96.51875S40.60625 95.034375 40.60625 93.20625V90.11875H35.6375C34.9875 90.11875 34.35625 90.075 33.715625 90.04375V93.20625C33.715625 95.034375 32.23125 96.51875 30.403125 96.51875S27.090625 95.034375 27.090625 93.20625V89.15625C14.04375 86.15 5.746875 76.14375 5.746875 62.35625V30.41875C5.746875 13.040625 16.125 2.66875 33.5 2.66875H65.728125C83.603125 2.66875 95.61875 13.825 95.61875 30.41875V62.359375C95.61875 77.471875 87.75625 87.278125 74.271875 89.578125zM27.096875 82.296875V81.56875C27.096875 79.740625 28.58125 78.25625 30.409375 78.25625S33.721875 79.740625 33.721875 81.56875V83.353125C34.365625 83.3875 34.975 83.490625 35.64375 83.490625H40.615625V81.565625C40.615625 79.7375 42.1 78.253125 43.928125 78.253125S47.240625 79.7375 47.240625 81.565625V83.490625H54.134375V81.565625C54.134375 79.7375 55.61875 78.253125 57.446875 78.253125S60.759375 79.7375 60.759375 81.565625V83.490625H67.659375V81.565625C67.659375 79.7375 69.14375 78.253125 70.971875 78.253125S74.284375 79.7375 74.284375 81.565625V82.75C81.58125 81.128125 86.303125 76.571875 88.1 69.43125H13.503125C15.534375 75.9625 20.39375 80.3625 27.096875 82.3zM88.99375 30.41875C88.99375 16.8125 79.334375 9.29375 65.728125 9.29375H33.5C19.8875 9.29375 12.371875 16.809375 12.371875 30.41875V62.359375C12.371875 62.51875 12.4125 62.65 12.415625 62.809375H88.959375C88.9625 62.65 88.99375 62.521875 88.99375 62.359375V30.41875zM29.603125 25.25625C30.8125 24.475 33.634375 23.265625 36.6 23.265625C42.090625 23.265625 43.790625 26.7625 43.740625 29.3875C43.690625 33.8125 39.709375 35.70625 35.575 35.70625H33.19375V38.9125H35.575C38.684375 38.9125 42.625 40.515625 42.625 44.25625C42.625 46.78125 41.021875 49.01875 37.08125 49.01875C34.559375 49.01875 32.125 47.9 30.765625 46.928125L29.646875 50.0375C31.3 51.253125 34.50625 52.465625 37.90625 52.465625C44.125 52.465625 46.94375 48.771875 46.94375 44.934375C46.94375 41.678125 45.00625 38.909375 41.1125 37.5V37.403125C45.003125 36.625 48.1625 33.7125 48.1625 29.290625C48.1625 24.234375 44.221875 19.8125 36.65 19.8125C33.103125 19.8125 29.99375 20.93125 28.440625 21.95L29.60625 25.253125zM62.784375 47.95H62.6875L57.196875 44.9875L56.371875 48.24375L63.271875 51.9375H66.915625V20.353125H62.7875V47.953125z" />
    <glyph glyph-name="text"
      unicode="&#xE603;"
      horiz-adv-x="100" d=" M72.5 95.125C69.50625 95.125 66.675 93.925 64.50625 91.8125L55.15 82.403125L20.51875 47.825C20.303125 47.615625 20.025 47.28125 19.70625 46.896875C19.70625 46.896875 19.70625 46.896875 19.70625 46.84375C18.675 46.1375 17.85625 45.115625 17.36875 43.909375L5.40625 14.609375C4.321875 12.00625 4.91875 8.959375 6.93125 6.946875C8.29375 5.584375 10.075 4.88125 11.93125 4.88125C12.853125 4.88125 13.728125 5.04375 14.5875 5.425L43.9 17.3875C45.1 17.875 46.06875 18.6875 46.834375 19.671875C46.8875 19.73125 46.8875 19.73125 46.8875 19.73125C47.2125 19.996875 47.5375 20.21875 47.809375 20.5375L91.790625 64.51875C96.2 68.928125 96.2 76.096875 91.790625 80.559375L80.54375 91.8C78.375 93.925 75.54375 95.125 72.503125 95.125zM11.934375 11.953125L20.953125 33.909375C21.16875 33.6375 21.5 33.3125 21.771875 33.034375L33.025 21.78125C33.240625 21.515625 33.56875 21.234375 33.9 20.96875L11.9375 11.95zM42.8125 25.5375C42.26875 24.990625 41.721875 24.725 41.18125 24.725C40.85 24.725 40.53125 24.834375 40.2 24.990625L25.084375 40.115625C24.596875 41.04375 24.596875 41.9125 25.51875 42.8375L28.896875 46.2H28.95L52.715625 70.0125C53.2625 68.7125 54.078125 67.459375 55.15625 66.36875L66.403125 55.121875C67.440625 54.090625 68.69375 53.265625 70 52.73125L42.8125 25.5375zM86.8 69.51875L77.403125 60.115625C77.025 59.68125 76.528125 59.409375 75.9875 59.19375C75.0125 58.815625 73.8125 58.815625 72.83125 59.19375C72.2875 59.409375 71.8 59.6875 71.421875 60.115625L60.16875 71.36875C58.48125 73.0625 58.48125 75.778125 60.16875 77.40625L60.81875 78.05625L67.890625 85.178125L69.521875 86.809375C70.334375 87.615625 71.41875 88.05625 72.515625 88.05625C73.646875 88.05625 74.7375 87.621875 75.559375 86.809375L86.8125 75.55625C88.4875 73.86875 88.4875 71.20625 86.8 69.51875z" />
    <glyph glyph-name="tag"
      unicode="&#xE604;"
      horiz-adv-x="100" d=" M88.059375 47.39375L47.24375 87.871875C45.321875 89.81875 42.478125 90.8625 38.784375 90.8625L18.409375 94.0375C11.134375 94.0375 5.965625 90.0125 5.965625 82.734375L9.140625 61.4375C9.140625 57.675 10.20625 54.78125 12.253125 52.878125V52.8625L53.06875 12.4C62.03125 3.44375 64.05625 4.028125 73.025 12.984375L86.459375 26.421875C95.43125 35.4 97.021875 38.453125 88.059375 47.39375zM44.890625 55.2125C39.828125 50.15 31.6125 50.134375 26.534375 55.2125S21.45625 68.490625 26.534375 73.56875S39.828125 78.646875 44.890625 73.56875C49.96875 68.496875 49.96875 60.290625 44.890625 55.2125z" />
    <glyph glyph-name="docs"
      unicode="&#xE605;"
      horiz-adv-x="100" d=" M77.640625 47.353125C75.840625 47.353125 74.20625 46.565625 73.5875 44.3125V12.84375H12.846875V73.753125H43.809375C46.00625 73.753125 47.24375 76.79375 47.24375 77.80625C47.24375 79.609375 45.66875 82.084375 43.415625 81.859375H8.175C6.54375 82.253125 4.515625 79.60625 4.515625 78.2V8.453125C4.515625 6.5375 6.825 4.7375 8.4 4.56875H77.865625C79.215625 4.56875 81.29375 6.14375 81.69375 8.003125V44.14375C81.69375 46.340625 78.653125 47.353125 77.640625 47.353125zM94.471875 83.890625C90.98125 87.775 87.371875 91.378125 83.71875 94.8125C82.925 95.4875 81.859375 95.4875 81.29375 95.4875C80.85 95.4875 79.215625 95.09375 78.646875 94.475C63.446875 79.6125 48.078125 65.034375 34.11875 49.609375C32.65625 48.203125 26.40625 32.778125 26.40625 30.525C26.40625 28.725 27.19375 26.246875 30.234375 26.246875C32.09375 26.246875 49.2625 33.959375 49.88125 34.346875C63.053125 47.35 76.396875 60.58125 89.175 73.528125C91.990625 76.625 95.48125 78.59375 95.48125 81.409375C95.4875 82.090625 95.09375 83.328125 94.475 83.890625zM45.271875 41.5C43.4125 39.86875 40.76875 39.41875 38.571875 38.403125C39.359375 40.65 39.753125 43.690625 41.3875 45.321875C50.50625 55.90625 61.428125 65.41875 71.5625 75.553125C72.8 74.540625 74.209375 73.13125 75.615625 71.725C65.484375 61.596875 55.8 50.790625 45.271875 41.5zM80.0625 76.178125L76.234375 80.0625L81.29375 85.296875C82.475 84.284375 83.94375 82.875 85.128125 81.4125L80.0625 76.178125z" />
    <glyph glyph-name="clock"
      unicode="&#xE606;"
      horiz-adv-x="100" d=" M50 100C22.4 100 0 77.59375 0 50C0 22.4 22.4 0 50 0C77.675 0 100 22.4 100 50C100 77.59375 77.678125 100 50 100zM71.759375 34.565625C70.553125 32.953125 68.71875 32.078125 66.79375 32.078125C65.68125 32.078125 64.39375 32.403125 63.359375 33.203125L46.553125 45.121875C44.965625 46.240625 44 48.003125 44 50.003125V75.121875C44 78.403125 46.71875 81.121875 50 81.121875C53.359375 81.121875 56 78.403125 56 75.121875V53.046875L70.325 42.959375C73.04375 41.046875 73.678125 37.2875 71.759375 34.571875z" />
    <glyph glyph-name="support"
      unicode="&#xE607;"
      horiz-adv-x="100" d=" M49.884375 98.578125C28.178125 98.578125 4.56875 83.896875 1.421875 53.4875V46.521875C1.421875 46 2.1625 41.196875 2.625 38.56875C9.140625 12.9625 31.084375 1.425 49.884375 1.425C76.178125 1.425 98.578125 22.628125 98.578125 50.11875C98.578125 76.40625 77.375 98.58125 49.884375 98.58125zM49.884375 92.0625C59.028125 92.0625 68.921875 89.434375 77.834375 81.4375C74.234375 77.8375 70.353125 74.0125 66.978125 70.125C61.71875 74.459375 55.434375 76.178125 49.884375 76.178125C44.565625 76.178125 38.796875 74.690625 33.484375 70.11875L22.171875 81.43125C31.084375 89.434375 40.740625 92.0625 49.884375 92.0625zM70.121875 50.115625C70.121875 38.28125 60.740625 29.884375 49.884375 29.884375C43.3625 29.884375 33.9375 33.715625 31.084375 42.625C30.56875 44.3375 29.88125 46.978125 29.88125 47.48125V52.515625C31.303125 64.8 41.41875 70.11875 49.878125 70.11875C61.71875 70.11875 70.121875 60.975 70.121875 50.11875zM7.94375 47.4875V52.515625C8.684375 60.975 11.078125 69.43125 18.56875 77.83125C22.16875 74.23125 25.99375 70.34375 29.88125 66.975C25.546875 62.403125 23.821875 55.2 23.821875 50.11875C23.821875 44.80625 25.315625 39.03125 29.8875 33.48125L18.56875 22.175C12.509375 27.7125 7.94375 40.465625 7.94375 47.490625zM49.884375 7.9375C40.734375 7.9375 31.084375 11.078125 22.165625 18.5625C25.765625 22.16875 29.659375 26 33.021875 29.88125C37.59375 25.990625 44.796875 23.815625 49.884375 23.815625C55.196875 23.815625 60.959375 25.540625 66.509375 29.88125L77.834375 18.5625C68.921875 11.075 59.028125 7.9375 49.884375 7.9375zM81.434375 22.171875L70.128125 33.253125C74.015625 38.05625 75.440625 42.90625 76.18125 47.709375V52.5125C75.209375 56.853125 74.24375 61.94375 70.128125 66.515625L81.434375 77.828125C88.921875 68.915625 92.059375 59.253125 92.059375 50.115625C92.059375 40.971875 88.91875 31.078125 81.434375 22.171875z" />
    <glyph glyph-name="sign-out"
      unicode="&#xE608;"
      horiz-adv-x="106.25" d=" M75.875 87.81875H64.19375C55.696875 87.81875 48.2875 82.84375 44.765625 75.64375L41.29375 78.13125C40.103125 78.959375 38.75625 79.375 37.35625 79.375C36.31875 79.375 35.284375 79.115625 34.29375 78.65C32.065625 77.509375 30.615625 75.178125 30.615625 72.640625V64.7125H14.5875C10.85625 64.7125 7.853125 61.70625 7.853125 57.978125V41.96875C7.853125 38.290625 10.859375 35.234375 14.5875 35.234375H30.621875V27.30625C30.621875 24.825 32.071875 22.484375 34.3 21.353125C35.284375 20.828125 36.325 20.575 37.3625 20.575C38.7625 20.575 40.103125 20.990625 41.3 21.81875L44.771875 24.30625C48.29375 17.1 55.703125 12.178125 64.2 12.178125H75.88125C87.796875 12.178125 97.484375 21.865625 97.484375 33.78125V66.1625C97.478125 78.078125 87.790625 87.81875 75.875 87.81875zM42.69375 31.1375L37.3625 27.309375V41.971875H14.5875V57.98125H37.3625V72.64375L42.69375 68.809375L49.278125 64.196875L69.225 50L42.69375 31.1375zM90.74375 33.784375C90.74375 25.603125 84.1125 18.915625 75.875 18.915625H64.19375C57.925 18.915625 52.5375 22.8 50.309375 28.246875L73.15625 44.51875C74.91875 45.753125 75.95 47.834375 75.95 50.009375S74.91875 54.2125 73.15625 55.50625L50.315625 71.70625C52.54375 77.196875 57.93125 81.084375 64.2 81.084375H75.88125C84.11875 81.084375 90.75 74.4 90.75 66.1625L90.74375 33.78125z" />
    <glyph glyph-name="category"
      unicode="&#xE609;"
      horiz-adv-x="106.25" d=" M52.55625 100L68.8375 67.04375L105.1125 61.8125L78.890625 36.1875L85.0125 -0.003125L52.55625 17.090625L20.10625 -0.003125L26.228125 36.1875L0 61.8125L36.28125 67.04375z" />
    <glyph glyph-name="bubbles2"
      unicode="&#xE60A;"
      horiz-adv-x="106.25" d=" M80.64375 100H56.909375C42.121875 100 32.121875 90.84375 31.859375 77.059375H25.028125C10.05625 77.059375 -0.00625 67.628125 -0.00625 53.6V33.321875C-0.00625 18.859375 8.98125 9.865625 23.45 9.865625H37.053125L52.1875 1.078125C53.409375 0.35625 54.7875 0 56.15625 0S58.88125 0.353125 60.09375 1.05625C62.55 2.465625 64.05 5.065625 64.05 7.89375V14.5875C68.765625 18.28125 71.48125 24.04375 72.00625 31.0125L72.115625 30.95L84.065625 24.009375C85.271875 23.31875 86.64375 22.953125 88.0125 22.953125S90.75 23.321875 91.959375 24.009375C94.43125 25.43125 95.90625 28.009375 95.90625 30.846875V37.534375C101.16875 41.640625 104.0625 48.21875 104.0625 56.26875V76.53125C104.05625 91.003125 95.1125 100.003125 80.6375 100.003125zM56.15625 19.05625V7.89375L39.184375 17.7625H23.45C13.43125 17.7625 7.8875 23.3 7.8875 33.325V53.603125C7.8875 63.634375 14.990625 69.16875 25.028125 69.16875H48.753125C51.39375 69.16875 53.70625 68.7625 55.70625 68.015625C60.146875 66.353125 62.94375 62.86875 63.909375 57.8125C63.95625 57.58125 64.034375 57.3875 64.071875 57.15C64.134375 56.759375 64.125 56.31875 64.1625 55.9125C64.240625 55.15625 64.33125 54.4125 64.33125 53.590625V33.328125C64.33125 26.128125 61.484375 21.24375 56.159375 19.05625zM96.16875 56.26875C96.16875 49.059375 93.328125 44.16875 88.0125 42.0125V30.85L72.225 40.00625V53.6C72.225 68.071875 63.23125 77.059375 48.76875 77.059375H39.80625C40.015625 86.790625 47.015625 92.10625 56.909375 92.10625H80.64375C90.64375 92.10625 96.16875 86.58125 96.16875 76.528125V56.265625z" />
    <glyph glyph-name="search"
      unicode="&#xE60B;"
      horiz-adv-x="100" d=" M94.9375 10.215625L70.04375 35.103125C70.071875 35.134375 70.103125 35.16875 70.125 35.196875C75.415625 41.596875 78.58125 49.8375 78.58125 58.79375C78.58125 79.41875 61.78125 96.21875 41.15625 96.21875S3.775 79.41875 3.775 58.79375S20.525 21.415625 41.153125 21.415625C50.06875 21.415625 58.278125 24.5625 64.70625 29.803125L89.615625 4.89375C90.371875 4.1375 91.325 3.7875 92.278125 3.7875C93.234375 3.7875 94.19375 4.134375 94.94375 4.89375C96.40625 6.346875 96.40625 8.71875 94.9375 10.215625zM41.146875 28.959375C24.7 28.959375 11.3125 42.340625 11.3125 58.7875C11.3125 75.2875 24.69375 88.671875 41.146875 88.671875C57.640625 88.671875 71.03125 75.290625 71.03125 58.7875C71.03125 51.946875 68.70625 45.553125 64.740625 40.528125C63.178125 38.515625 61.421875 36.75625 59.40625 35.24375C54.31875 31.275 48.0375 28.959375 41.146875 28.959375z" />
    <glyph glyph-name="profile"
      unicode="&#xE60C;"
      horiz-adv-x="103.125" d=" M49.9375 97.1875C23.925 97.1875 2.75 76.01875 2.75 50C2.75 23.9875 23.925 2.8125 49.9375 2.8125C75.94375 2.8125 97.125 23.9875 97.125 50S75.94375 97.1875 49.9375 97.1875zM49.9375 89.7375C71.8875 89.7375 89.675 71.953125 89.675 50C89.675 41.6125 87.0625 33.8375 82.615625 27.425C78.24375 28.421875 73.503125 29.21875 68.40625 29.771875C68.64375 32.284375 69.03125 34.609375 69.34375 36.259375C73.403125 41.13125 75.63125 47.353125 75.63125 53.865625C75.63125 68.684375 64.1125 80.740625 49.9375 80.740625C35.76875 80.740625 24.23125 68.684375 24.23125 53.865625C24.23125 47.353125 26.459375 41.14375 30.525 36.259375C30.8375 34.6125 31.234375 32.284375 31.45625 29.771875C26.359375 29.221875 21.621875 28.421875 17.253125 27.425C12.8125 33.8375 10.2 41.60625 10.2 50C10.2 71.953125 27.990625 89.7375 49.9375 89.7375zM37.628125 38.709375C37.496875 39.353125 37.184375 39.953125 36.74375 40.44375C33.4875 44.071875 31.68125 48.8375 31.68125 53.8625C31.68125 64.575 39.86875 73.2875 49.93125 73.2875C60 73.2875 68.18125 64.575 68.18125 53.8625C68.18125 48.83125 66.38125 44.059375 63.125 40.44375C62.678125 39.953125 62.375 39.353125 62.234375 38.709375C61.721875 36.225 60.846875 31.340625 60.753125 26.48125C60.71875 24.521875 62.215625 22.878125 64.1625 22.70625C68.175 22.359375 71.984375 21.86875 75.553125 21.2625C68.615625 14.86875 59.56875 11.30625 49.940625 11.30625C40.31875 11.30625 31.259375 14.875 24.321875 21.26875C27.890625 21.88125 31.7 22.371875 35.70625 22.7125C37.665625 22.871875 39.15 24.521875 39.115625 26.4875C39.021875 31.340625 38.14375 36.225 37.621875 38.709375z" />
    <glyph glyph-name="bubble-comment"
      unicode="&#xE60D;"
      horiz-adv-x="90.625" d=" M89.475 56.259375C89.475 31.896875 69.584375 12.521875 44.84375 12.521875C42.421875 12.521875 41.528125 12.46875 40.634375 12.521875C39.475 12.63125 38.31875 12.946875 34.109375 13.84375L12.79375 0V25.421875C5.26875 32.790625 1.584375 41.315625 0.478125 48.421875C0.215625 49.58125 0.003125 51.315625 0.003125 51.790625V60.475C3.2125 87.053125 25.1625 100 44.634375 100C69.79375 100 89.475 80.159375 89.475 56.259375z" />
    <glyph glyph-name="bubble"
      unicode="&#xE60E;"
      horiz-adv-x="100" d=" M0 51.19375C0 24.26875 21.865625 2.46875 48.8 2.46875C56.475 2.46875 63.665625 4.196875 70.128125 7.328125C77.328125 1.2625 100 0 100 0C88.734375 5.8 84.465625 12.8 82.928125 16.334375C91.934375 25.19375 97.528125 37.534375 97.528125 51.19375C97.528125 78.140625 75.728125 100 48.8 100C21.865625 100 0 78.140625 0 51.19375z" />
    <glyph glyph-name="plus"
      unicode="&#xE60F;"
      horiz-adv-x="100" d=" M100 66.665625H66.665625V100H33.33125V66.665625H-0.003125V33.325H33.33125V-0.003125H66.665625V33.325H100z" />
    <glyph glyph-name="notification"
      unicode="&#xE610;"
      horiz-adv-x="87.5" d=" M88.1875 30.634375C87.675 35.153125 86.06875 44.140625 78.075 48.56875V50.78125C78.075 53.653125 78.075 55.15625 78.021875 56.003125C78.075 56.615625 78.075 57.228125 78.075 57.8375C78.075 70.309375 71.0625 81.790625 60.2875 87.625C58.4 94.725 51.90625 99.996875 44.234375 99.996875S30.06875 94.725 28.1875 87.61875C17.4125 81.784375 10.4 70.3 10.4 57.83125C10.4 57.21875 10.4 56.60625 10.446875 55.996875C10.4 55.15 10.4 53.64375 10.4 50.775V48.5625C2.4 44.090625 0.8 35.05625 0.28125 30.584375C0.09375 29.971875 0 29.3125 0 28.65625C0 20.85 7.48125 14.025 16 14.025H28.1875C29.221875 6.115625 36.046875 0 44.234375 0S59.246875 6.11875 60.28125 14.025H72.46875C80.9875 14.025 88.421875 20.85 88.421875 28.65625C88.421875 29.3625 88.328125 30.021875 88.1875 30.634375zM44.234375 7.059375C39.953125 7.059375 36.328125 10.025 35.340625 14.025H53.128125C52.140625 10.025 48.515625 7.059375 44.234375 7.059375zM72.471875 21.08125H16C11.059375 21.08125 7.059375 25.034375 7.059375 28.653125H7.2C8.046875 37.640625 10.91875 42.3 17.459375 43.7125V50.771875C17.459375 50.959375 17.459375 55.853125 17.50625 56.04375C17.459375 56.659375 17.459375 57.225 17.459375 57.8375C17.459375 69.271875 24.6125 79.0625 34.73125 82.871875V83.4375C34.73125 88.709375 38.965625 92.94375 44.2375 92.94375S53.74375 88.709375 53.74375 83.4375V82.871875C63.8625 79.059375 71.01875 69.271875 71.01875 57.8375C71.01875 57.225 71.01875 56.659375 70.965625 56.05C71.01875 55.8625 71.01875 50.96875 71.01875 50.778125V43.71875C77.559375 42.30625 80.378125 37.646875 81.278125 28.659375H81.371875C81.365625 25.034375 77.365625 21.084375 72.471875 21.084375z" />
    <glyph glyph-name="back"
      unicode="&#xE611;"
      horiz-adv-x="100" d=" M99.846875 49.24375L53.503125 15.54375V36.421875C49.353125 38.334375 45.15 38.09375 41.828125 38.09375C27.63125 38.09375 14.01875 32.646875 0.109375 17.446875C-0.43125 23.96875 0.978125 31.809375 4.6 38.09375C15.96875 58.425 36.5625 62.209375 52.675 63.0375C52.95625 63.0375 53.215625 63.290625 53.509375 63.578125V84.459375L99.846875 49.24375z" />
    <glyph glyph-name="arrow-u"
      unicode="&#xE612;"
      horiz-adv-x="100" d=" M100 34.75L84.334375 20.834375L50 51.41875L15.584375 20.834375L0 34.75L50 79.165625z" />
    <glyph glyph-name="member"
      unicode="&#xE613;"
      horiz-adv-x="100" d=" M97.621875 10.58125C97.546875 23.40625 85.16875 33.89375 67.6625 38.375C67.809375 43.65625 68.75625 48.909375 69.35 51.828125C73.884375 56.846875 76.65 63.653125 76.65 71.121875C76.65 86.634375 64.721875 99.196875 49.996875 99.196875C35.278125 99.196875 23.34375 86.625 23.34375 71.121875C23.34375 63.646875 26.109375 56.840625 30.64375 51.828125C31.24375 48.909375 32.178125 43.65625 32.3375 38.375C14.825 33.875 2.45 23.403125 2.378125 10.58125V9.721875C2.378125 4.796875 6.371875 0.8 11.3125 0.8H88.690625C93.65 0.8 97.625 4.8 97.625 9.721875V10.58125z" />
    <glyph glyph-name="map"
      unicode="&#xE614;"
      horiz-adv-x="75" d=" M37.93125 95.4625C18.8875 95.4625 3.440625 80.021875 3.440625 60.978125S27.240625 4.546875 37.93125 4.546875C48.625 4.546875 72.415625 41.934375 72.415625 60.978125S56.98125 95.4625 37.93125 95.4625zM37.93125 45.925C29.503125 45.925 22.671875 52.765625 22.671875 61.184375C22.671875 69.6125 29.503125 76.4375 37.93125 76.4375S53.184375 69.6125 53.184375 61.184375C53.184375 52.765625 46.359375 45.925 37.93125 45.925z" />
    <glyph glyph-name="arrow-search"
      unicode="&#xE615;"
      horiz-adv-x="90.625" d=" M89.83125 47.340625L89.521875 47.03125L44.64375 1.153125C43.875 0.384375 42.88125 -0.003125 41.871875 -0.003125C40.95625 -0.003125 39.946875 0.30625 39.178125 1.075C37.715625 2.5375 37.6375 5 39.178125 6.4625L78.05 46.18125H3.84375C1.75625 46.18125 -0.00625 47.875 -0.00625 50.03125C-0.00625 52.109375 1.75625 53.88125 3.84375 53.88125H77.89375L39.175 93.525C37.634375 94.9875 37.7125 97.45 39.175 98.9125C40.715625 100.375 43.184375 100.375 44.640625 98.834375L89.59375 52.878125C89.671875 52.878125 89.75625 52.8 89.825 52.725C91.2875 51.2625 91.365625 48.8 89.825 47.3375z" />
    <glyph glyph-name="arrow-r"
      unicode="&#xE616;"
      horiz-adv-x="59.375" d=" M13.915625 0L0 15.665625L30.584375 50L0 84.415625L13.915625 100L58.33125 50z" />
    <glyph glyph-name="mail"
      unicode="&#xE617;"
      horiz-adv-x="84.375" d=" M57.45625 89.375H27.509375C10.45625 89.375 -1.04375 78.659375 -1.04375 62.76875V37.178125C-1.04375 20.815625 9.15625 10.61875 25.5625 10.61875H55.503125C72.56875 10.61875 84.0625 21.28125 84.0625 37.178125V62.76875C84.06875 79.175 73.86875 89.375 57.45625 89.375zM77.1125 62.771875V37.18125C77.1125 36.025 77.01875 34.9125 76.8875 33.8875L57.040625 53.54375L75.4 72.175C76.55625 69.54375 77.1125 66.38125 77.1125 62.775zM27.5125 82.425H57.453125C63.39375 82.425 68.06875 80.89375 71.3125 77.921875L69.184375 75.74375L52.075 58.453125L49.625 55.946875L47.21875 53.496875L41.51875 47.753125L35.815625 53.503125L33.40625 55.95L30.946875 58.45625L13.84375 75.75L12.175 77.46875C15.978125 80.7125 21.309375 82.43125 27.515625 82.43125zM5.9125 62.771875C5.9125 66.246875 6.609375 69.309375 7.9125 71.9125L26.03125 53.596875L6.09375 33.846875C5.9625 34.9125 5.909375 36.03125 5.909375 37.190625V62.771875zM55.509375 17.575H25.56875C17.271875 17.575 11.3875 20.5875 8.375 26.246875L9.35 27.265625L30.903125 48.634375L39.059375 40.384375C39.70625 39.728125 40.590625 39.365625 41.51875 39.365625C42.44375 39.365625 43.321875 39.728125 44.025 40.384375L52.134375 48.634375L74.334375 26.61875C70.809375 20.734375 63.990625 17.575 55.50625 17.575z" />
    <glyph glyph-name="lock"
      unicode="&#xE618;"
      horiz-adv-x="90.625" d=" M76.121875 58.984375H72.546875V68.609375H72.45625C71.3625 82.946875 59.3625 94.246875 44.734375 94.246875C30.103125 94.246875 18.1125 82.946875 17.003125 68.609375H16.925V58.984375H13.35C9.35 58.984375 6.103125 55.7375 6.103125 51.715625V27.053125C6.103125 13.321875 13.696875 5.753125 27.41875 5.753125H59.909375C73.640625 5.753125 83.36875 13.321875 83.36875 27.053125V51.715625C83.36875 55.740625 80.14375 58.984375 76.121875 58.984375zM27.984375 65.7375V65.76875C28 75.021875 35.50625 82.490625 44.7375 82.490625C53.984375 82.490625 61.475 75.021875 61.496875 65.76875V58.984375H27.9875V65.7375z" />
    <glyph glyph-name="arrow-l"
      unicode="&#xE619;"
      horiz-adv-x="59.375" d=" M44.415625 99.990625L58.33125 84.325L27.746875 49.990625L58.33125 15.575L44.415625 -0.009375L0 49.990625z" />
    <glyph glyph-name="arrow-d"
      unicode="&#xE61A;"
      horiz-adv-x="100" d=" M0 65.25L15.665625 79.165625L50 48.58125L84.415625 79.165625L100 65.25L50 20.834375z" />
    <glyph glyph-name="link"
      unicode="&#xE61B;"
      horiz-adv-x="100" d=" M30.31875 6.821875C24.26875 6.821875 18.221875 9.121875 13.6125 13.73125C4.409375 22.93125 4.409375 37.915625 13.60625 47.128125L25.228125 58.75C34.44375 67.965625 49.434375 67.953125 58.63125 58.75C59.846875 57.540625 60.909375 56.203125 61.825 54.79375C63.371875 52.396875 62.6875 49.2 60.290625 47.659375C57.9 46.103125 54.70625 46.79375 53.16875 49.184375C52.640625 50.003125 52.025 50.76875 51.328125 51.45625C46.1625 56.628125 37.71875 56.621875 32.534375 51.446875L20.91875 39.840625C15.740625 34.646875 15.7375 26.209375 20.91875 21.021875C26.1 15.84375 34.525 15.84375 39.721875 21.021875L51.34375 32.63125C53.365625 34.6625 56.628125 34.646875 58.6375 32.63125C60.653125 30.615625 60.653125 27.340625 58.6375 25.33125L47.015625 13.73125C42.415625 9.115625 36.3625 6.821875 30.31875 6.821875zM58.06875 34.565625C52.015625 34.565625 45.971875 36.865625 41.365625 41.475C40.290625 42.55 39.34375 43.69375 38.525 44.903125C36.921875 47.25 37.53125 50.46875 39.8875 52.075C42.240625 53.66875 45.453125 53.06875 47.059375 50.7125C47.534375 50.021875 48.06875 49.36875 48.675 48.765625C53.840625 43.59375 62.284375 43.60625 67.46875 48.775L79.084375 60.384375C84.2625 65.565625 84.2625 74.00625 79.078125 79.2C74.084375 84.20625 65.30625 84.221875 60.28125 79.19375L48.659375 67.571875C46.64375 65.55625 43.375 65.55625 41.359375 67.571875S39.34375 72.85 41.359375 74.865625L52.98125 86.490625C61.896875 95.409375 77.475 95.40625 86.378125 86.490625C95.578125 77.28125 95.578125 62.296875 86.384375 53.0875L74.7625 41.471875C70.1625 36.8625 64.109375 34.5625 58.065625 34.5625z" />
    <glyph glyph-name="leaders"
      unicode="&#xE61C;"
      horiz-adv-x="106.25" d=" M84.509375 92.053125C82.3 96.7375 77.509375 100 71.984375 100H33.878125C28.3 100 23.509375 96.684375 21.3 91.953125C13.509375 91.36875 1.721875 88.421875 1.5625 73.584375V72.946875C1.878125 60.109375 13.084375 50.946875 28.45625 50.946875H28.771875C31.0875 48.89375 33.98125 47.26875 37.71875 46.10625V31.2625H29.403125C22.034375 31.2625 16.0875 25.2625 16.0875 17.9V13.315625C16.0875 6.00625 22.034375 0.00625 29.403125 0.00625H76.45C83.81875 0.00625 89.765625 6.0125 89.765625 13.315625V17.89375C89.765625 25.25625 83.81875 31.25625 76.45 31.25625H68.134375V46.096875C71.875 47.259375 74.871875 48.940625 77.19375 50.990625C90.45625 51.465625 104.19375 59.20625 104.29375 73.253125V73.30625C104.19375 89.3625 91.984375 91.73125 84.509375 92.05zM9.45625 73.2625V73.41875C9.5625 80.575 13.665625 83.103125 19.98125 83.8875V72.734375C19.98125 72.15625 20.034375 71.571875 20.140625 70.996875C20.503125 67.15625 21.1875 63.15625 22.715625 59.471875C15.40625 61.05 9.509375 65.840625 9.45625 73.2625zM81.878125 17.89375V13.309375C81.878125 10.315625 79.45625 7.89375 76.45625 7.89375H29.409375C26.409375 7.89375 23.9875 10.315625 23.9875 13.309375V17.89375C23.9875 20.89375 26.409375 23.3625 29.409375 23.3625H76.45625C79.45625 23.3625 81.878125 20.9 81.878125 17.89375zM77.984375 72.7375H77.93125C77.509375 66.578125 76.3 62.053125 73.878125 58.8375C71.140625 55.2125 66.825 53.2625 60.246875 52.528125V31.259375H45.615625V52.528125C39.0375 53.265625 34.721875 55.2125 31.984375 58.8375C29.5625 62.046875 28.353125 66.578125 27.925 72.7375H27.871875V86.053125C27.871875 89.428125 30.55625 92.10625 33.871875 92.10625H71.978125C75.29375 92.10625 77.978125 89.421875 77.978125 86.053125V72.7375zM96.403125 73.2625C96.35 66.315625 90.35 61.7375 83.296875 59.840625C84.771875 63.41875 85.403125 67.315625 85.71875 71.05C85.825 71.575 85.871875 72.15625 85.871875 72.734375V83.996875C92.6625 83.465625 96.346875 81.103125 96.396875 73.41875V73.259375z" />
    <glyph glyph-name="invitations"
      unicode="&#xE61D;"
      horiz-adv-x="93.75" d=" M35.171875 75.03125H57.678125C59.30625 75.03125 60.653125 76.096875 61.159375 77.55625C61.271875 77.89375 61.328125 78.2875 61.328125 78.678125C61.328125 80.7 59.7 82.325 57.68125 82.325H35.175C33.153125 82.325 31.528125 80.696875 31.528125 78.678125C31.528125 78.284375 31.584375 77.89375 31.696875 77.55625C32.203125 76.096875 33.55 75.03125 35.178125 75.03125zM35.171875 60.94375H57.678125C59.7 60.94375 61.325 62.571875 61.325 64.590625S59.696875 68.2375 57.678125 68.2375H35.171875C33.15 68.2375 31.525 66.609375 31.525 64.590625S33.153125 60.94375 35.171875 60.94375zM9.01875 9.140625C13.846875 4.25625 20.8625 1.5625 29.50625 1.5625H61.2125C70.25 1.5625 77.825 4.36875 83.103125 9.309375C84.44375 10.54375 85.565625 11.890625 86.6375 13.40625C87.365625 14.471875 88.040625 15.65 88.603125 16.8875C88.771875 17.225 88.996875 17.615625 89.16875 17.953125C89.225 18.009375 89.225 18.065625 89.225 18.121875V18.178125C89.61875 19.01875 89.953125 19.91875 90.178125 20.815625C91.01875 23.565625 91.4625 26.540625 91.4625 29.684375V56.7375C91.4625 57.803125 91.40625 58.871875 91.3 59.9375C91.18125 61.959375 90.85 63.921875 90.284375 65.775C90.059375 66.615625 89.840625 67.459375 89.5 68.24375C89.5 68.46875 89.44375 68.6375 89.275 68.8625C89.1625 69.2 89.05 69.5375 88.88125 69.928125C88.76875 70.153125 88.65625 70.434375 88.54375 70.7125C88.4875 70.76875 88.4875 70.88125 88.375 70.9375C88.375 71.10625 88.31875 71.21875 88.15 71.33125C86.134375 75.371875 83.103125 78.628125 79.225 80.871875V83.340625C79.225 91.646875 72.9375 98.4375 65.1375 98.4375H27.86875C20.0625 98.4375 13.71875 91.646875 13.71875 83.340625V80.140625C9.509375 77.503125 6.196875 73.853125 4.178125 69.365625C4.015625 69.196875 3.896875 68.971875 3.790625 68.746875C3.728125 68.578125 3.671875 68.409375 3.621875 68.240625C2.16875 64.759375 1.4375 60.8875 1.4375 56.734375V29.68125C1.4375 22.046875 3.509375 15.7625 7.26875 11.046875C7.834375 10.371875 8.396875 9.75625 9.015625 9.1375zM8.85 27.26875C8.7375 28.053125 8.7375 28.840625 8.7375 29.68125V56.734375C8.7375 60.159375 9.35 63.190625 10.478125 65.771875L13.734375 62.684375L21.03125 55.725L33.1 44.275L9.021875 25.809375C8.909375 26.259375 8.853125 26.7625 8.853125 27.26875zM79.23125 64.7625L81.98125 67.5125C82.09375 67.34375 82.15 67.175 82.20625 67.00625C82.2625 66.95 82.2625 66.8375 82.2625 66.78125C82.54375 66.275 82.7125 65.771875 82.88125 65.209375C82.9375 65.040625 82.99375 64.871875 83.04375 64.646875C83.2125 64.084375 83.3875 63.525 83.49375 62.9625C83.55625 62.7375 83.6125 62.5125 83.6125 62.2875C83.6125 62.23125 83.6125 62.175 83.66875 62.11875C83.725 61.725 83.7875 61.278125 83.8375 60.884375C83.8375 60.828125 83.8375 60.828125 83.8375 60.771875C83.95 60.265625 84.00625 59.70625 84.00625 59.14375C84.0625 58.359375 84.11875 57.571875 84.11875 56.73125V29.678125C84.11875 28.1625 84.00625 26.703125 83.725 25.35625L78.678125 29.284375L71.94375 34.559375L59.259375 44.55L71.94375 57.403125L79.234375 64.75625zM79.45625 16.04375C78.89375 15.425 78.334375 14.809375 77.715625 14.246875C77.653125 14.246875 77.596875 14.190625 77.546875 14.134375C76.871875 13.571875 76.2 13.06875 75.415625 12.5625C74.6875 12.1125 73.95625 11.721875 73.171875 11.271875C72.946875 11.215625 72.721875 11.103125 72.496875 10.990625C71.821875 10.709375 71.09375 10.428125 70.3625 10.20625C69.465625 9.925 68.571875 9.64375 67.55625 9.478125H67.3875C66.546875 9.253125 65.696875 9.140625 64.8 9.084375C63.621875 8.915625 62.44375 8.859375 61.209375 8.859375H29.503125C28.2625 8.859375 27.034375 8.915625 25.90625 9.084375C25.178125 9.140625 24.446875 9.253125 23.771875 9.421875C21.5875 9.815625 19.625 10.4875 17.940625 11.44375C17.434375 11.66875 16.9875 11.95 16.5375 12.284375C14.909375 13.35 13.50625 14.696875 12.446875 16.26875C11.996875 16.83125 11.65625 17.390625 11.38125 18.009375C11.325 18.065625 11.26875 18.178125 11.2125 18.234375L17.446875 23.00625L25.415625 29.18125L38.49375 39.171875L44.33125 43.6625L46.409375 45.290625L48.2625 43.83125L54.1 39.284375L66.784375 29.35C66.728125 29.29375 66.665625 29.29375 66.559375 29.29375H66.840625L81.040625 18.18125C80.525 17.396875 80.01875 16.721875 79.459375 16.046875zM23.05 88.840625C23.6125 89.56875 24.396875 90.13125 25.2375 90.525C26.028125 90.91875 26.921875 91.14375 27.88125 91.14375H65.15C67.8375 91.14375 70.2 89.346875 71.26875 86.709375C71.4375 86.315625 71.55 85.86875 71.6625 85.475C71.6625 85.41875 71.71875 85.3625 71.71875 85.30625C71.83125 84.8 71.8875 84.353125 71.8875 83.846875C71.94375 83.678125 71.94375 83.509375 71.94375 83.340625V67.79375L53.471875 49.046875L48.7 52.80625C47.353125 53.815625 45.55 53.815625 44.203125 52.80625L38.984375 48.765625L21.025 65.884375V83.396875C21.03125 85.53125 21.759375 87.4375 23.05 88.840625z" />
    <glyph glyph-name="heart"
      unicode="&#xE61E;"
      horiz-adv-x="112.5" d=" M76.340625 93.878125C67.946875 93.878125 60.3875 87.621875 55.4625 80.20625C50.559375 87.621875 43.065625 93.878125 34.78125 93.878125C20.240625 93.878125 8.415625 82.059375 8.415625 67.51875C8.415625 42.875 28.8125 26.546875 46.81875 12.13125C49.009375 10.375 51.190625 8.615625 53.3125 6.878125C53.9375 6.371875 54.69375 6.115625 55.45625 6.115625C56.24375 6.115625 57.021875 6.384375 57.659375 6.925C60.059375 8.996875 62.58125 11.065625 65.140625 13.190625C82.75 27.7625 102.69375 44.2875 102.69375 67.51875C102.69375 82.059375 90.875 93.878125 76.340625 93.878125z" />
    <glyph glyph-name="file"
      unicode="&#xE61F;"
      horiz-adv-x="90.625" d=" M84.640625 67.175C84.640625 63.428125 83.31875 57.528125 80.940625 53.6125C80.278125 52.73125 79.44375 51.184375 78.55625 50.084375C65.3 36.571875 51.6125 21.9 37.73125 9.440625C34.9125 6.84375 29.4625 5.965625 26.2 5.965625C19.678125 5.965625 10.78125 9.225 6.9 18.646875C6.253125 20.625 5.365625 24.33125 5.365625 24.765625V29.128125C5.80625 32.828125 6.6875 37.009375 9.95 40.265625C22.321875 53.6125 35.35625 66.29375 48.35 78.978125C49.009375 79.8125 49.8875 80.253125 50.9875 80.696875C52.271875 81.35 55.965625 82.234375 57.6875 82.234375C65.965625 82.234375 72.703125 75.66875 72.703125 67.396875C72.703125 65.4125 72.04375 62.771875 71.159375 61.05C70.5 59.5125 69.440625 57.971875 68.125 56.425C61.1625 49.471875 54.028125 42.25 46.853125 35.246875C46.19375 34.5875 45.315625 34.365625 44.921875 34.365625C42.93125 34.365625 42.05625 35.903125 42.05625 37.453125C42.05625 37.8875 42.05625 38.95 42.71875 39.384375C49.89375 47.046875 57.690625 54.490625 64.865625 61.890625C66.1875 63.2125 66.84375 66.078125 66.84375 67.396875C66.84375 72.4125 62.259375 76.3375 57.684375 76.3375C55.965625 76.3375 54.471875 76.55625 52.921875 75.0125C39.890625 62.76875 27.075 49.6875 14.484375 36.571875C13.603125 35.903125 13.20625 34.5875 12.546875 33.484375C11.23125 30.659375 11.23125 29.5625 11.23125 26.91875C11.23125 18.640625 17.74375 11.859375 26.203125 11.859375C28.84375 11.859375 29.678125 11.640625 33.1625 13.621875C38.4 16.6625 44.48125 24.325 49.678125 29.121875C58.134375 37.66875 66.846875 45.95 74.64375 54.709375C77.4625 57.746875 77.90625 61.26875 78.778125 64.528125V69.99375C75.959375 82.675 67.06875 88.1375 57.69375 88.1375C54.48125 88.1375 50.778125 87.696875 47.51875 85.49375C46.63125 85.1 45.3125 84.4375 44.696875 83.55625C36.8625 76.1125 29.2375 68.0125 21.66875 60.615625C21.00625 59.953125 20.11875 59.734375 19.684375 59.734375C17.746875 59.734375 16.865625 61.271875 16.865625 62.771875C16.865625 65.4125 25.584375 73.075 26.865625 74.134375C31.21875 78.75625 35.978125 83.78125 41 88.1375C43.378125 90.340625 46.853125 92.053125 49.896875 92.934375C52.93125 94.0375 55.1 94.0375 57.9125 94.0375C72.709375 94.0375 84.646875 82.0125 84.646875 67.175z" />
    <glyph glyph-name="feed"
      unicode="&#xE620;"
      horiz-adv-x="115.625" d=" M95.984375 36.171875H15.6C7.978125 36.171875 1.784375 42.371875 1.784375 49.99375S7.978125 63.821875 15.6 63.821875H95.984375C103.603125 63.821875 109.80625 57.621875 109.80625 50C109.80625 42.371875 103.6 36.171875 95.984375 36.171875zM15.6 55.51875C12.559375 55.51875 10.0875 53.04375 10.0875 50S12.5625 44.475 15.6 44.475H95.984375C99.025 44.475 101.503125 46.95 101.503125 49.99375S99.021875 55.51875 95.984375 55.51875H15.6zM73.840625 1.5625H15.6C7.978125 1.5625 1.784375 7.75625 1.784375 15.38125S7.978125 29.209375 15.6 29.209375H73.840625C81.459375 29.209375 87.6625 23.009375 87.6625 15.3875S81.45625 1.565625 73.840625 1.565625zM15.6 20.903125C12.559375 20.903125 10.0875 18.428125 10.0875 15.384375S12.5625 9.865625 15.6 9.865625H73.840625C76.88125 9.865625 79.359375 12.340625 79.359375 15.378125C79.359375 18.421875 76.878125 20.903125 73.840625 20.903125H15.6zM95.984375 70.7875H15.6C7.978125 70.7875 1.784375 76.9875 1.784375 84.609375S7.978125 98.4375 15.6 98.4375H95.984375C103.603125 98.4375 109.80625 92.2375 109.80625 84.615625C109.80625 76.9875 103.6 70.7875 95.984375 70.7875zM15.6 90.134375C12.559375 90.134375 10.0875 87.659375 10.0875 84.615625S12.5625 79.090625 15.6 79.090625H95.984375C99.025 79.090625 101.503125 81.565625 101.503125 84.609375S99.021875 90.134375 95.984375 90.134375H15.6z" />
    <glyph glyph-name="bars"
      unicode="&#xE621;"
      horiz-adv-x="115.625" d=" M16.74375 25.534375H99.925C105.30625 25.534375 109.709375 21.13125 109.709375 15.75S105.30625 5.965625 99.925 5.965625H16.74375C11.3625 5.965625 6.959375 10.36875 6.959375 15.75S11.3625 25.534375 16.74375 25.534375zM16.74375 59.7875H99.925C105.30625 59.7875 109.709375 55.384375 109.709375 50S105.30625 40.215625 99.925 40.215625H16.74375C11.3625 40.215625 6.959375 44.61875 6.959375 50S11.3625 59.784375 16.74375 59.784375zM16.74375 94.0375H99.925C105.30625 94.0375 109.709375 89.634375 109.709375 84.253125S105.30625 74.46875 99.925 74.46875H16.74375C11.3625 74.46875 6.959375 78.871875 6.959375 84.253125S11.3625 94.0375 16.74375 94.0375z" />
    <glyph glyph-name="media"
      unicode="&#xE622;"
      horiz-adv-x="103.125" d=" M69.996875 100H33.9625C13.978125 100 0.54375 87.53125 0.54375 68.971875V31.025C0.54375 11.596875 12.15 -0.003125 31.575 -0.003125H67.6C87.584375 -0.003125 101.021875 12.465625 101.021875 31.025V68.971875C101.021875 88.4 89.421875 100 69.99375 100zM93.61875 31.03125C93.61875 15.8125 82.825 7.4125 67.603125 7.4125H31.578125C16.359375 7.4125 7.953125 15.8125 7.953125 31.03125V68.971875C7.953125 84.18125 18.753125 92.590625 33.9625 92.590625H69.996875C85.20625 92.590625 93.615625 84.18125 93.615625 68.971875V31.03125zM70.49375 79.95H31.075C23.925 79.95 18.103125 74.128125 18.103125 66.96875V33.028125C18.103125 25.878125 23.925 20.05625 31.075 20.05625H70.49375C77.65 20.05625 83.475 25.878125 83.475 33.028125V66.96875C83.475 74.128125 77.653125 79.95 70.49375 79.95zM76.06875 33.028125C76.06875 29.95 73.56875 27.4625 70.49375 27.4625H31.075C28.003125 27.4625 25.509375 29.95 25.509375 33.028125V66.96875C25.509375 70.05625 28.003125 72.54375 31.075 72.54375H70.49375C73.571875 72.54375 76.06875 70.05625 76.06875 66.96875V33.028125zM58.759375 53.209375L46.946875 60.034375C45.6625 60.775 44.0875 60.775 42.803125 60.040625C41.51875 59.3 40.734375 57.93125 40.734375 56.45625V42.796875C40.734375 41.315625 41.51875 39.953125 42.803125 39.2125C43.440625 38.840625 44.15 38.659375 44.871875 38.659375C45.5875 38.659375 46.3 38.840625 46.940625 39.20625L58.76875 46.05C60.05625 46.784375 60.8375 48.153125 60.8375 49.634375C60.83125 51.1125 60.04375 52.475 58.759375 53.209375z" />
    <glyph glyph-name="add"
      unicode="&#xE623;"
      horiz-adv-x="121.875" d=" M38.821875 72.38125H25.3875V85.809375H16.43125V72.38125H3V63.425H16.43125V49.996875H25.3875V63.425H38.821875zM121.590625 14.70625C121.521875 26.18125 110.440625 35.578125 94.765625 39.5875C94.9 44.31875 95.75 49.01875 96.2875 51.634375C100.346875 56.125 102.821875 62.21875 102.821875 68.9125C102.821875 82.796875 92.13125 94.053125 78.953125 94.053125S55.084375 82.796875 55.084375 68.9125C55.084375 62.21875 57.559375 56.125 61.625 51.634375C62.15625 49.021875 63 44.31875 63.140625 39.5875C47.46875 35.5625 36.38125 26.18125 36.315625 14.70625V13.93125C36.315625 9.528125 39.89375 5.946875 44.321875 5.946875H113.6C118.0375 5.946875 121.6 9.525 121.6 13.93125V14.70625z" />
    <glyph glyph-name="check"
      unicode="&#xE624;"
      horiz-adv-x="109.375" d=" M110 91.6C110 86.890625 100.1 74.9 98.109375 71.890625C94.609375 67 90.809375 61.890625 87.409375 56.4C84.7 53.109375 82.1 49.3 79.8 45.5C77.5 42.5 75.2 38.7 72.8 35.4C68.2 28.590625 63.3 21.5 58.3 14.390625C55.7 10.609375 53.1 5.7 49.1 1.6C48.2 0.8 46.4 0.5 45 0.290625C44.4 0 43.2 0 42.7 0C38.9 0 37.2 0.8 32.8 5.4C22.3 16.6 11.3 28.109375 1.5 39.2C0.3 40.609375 0 43.3 0 43.909375C0 49.3 4.6 52.3 9 52.3C11 52.3 11.6 52.590625 14.2 50.990625C22.909375 44.990625 31.6 38.390625 40.3 32.2C58 53.7 76 76.8 95.2 98.590625C95.8 99.5 97.2 99.5 98.390625 100H100.090625C105.409375 100 110 96.2 110 91.6z" />
    <glyph glyph-name="times"
      unicode="&#xE625;"
      horiz-adv-x="100" d=" M58.85625 50L85.740625 76.884375C88.190625 79.334375 88.190625 83.290625 85.740625 85.7375S79.334375 88.1875 76.884375 85.7375L50 58.853125L23.115625 85.7375C20.665625 88.1875 16.709375 88.1875 14.2625 85.7375S11.8125 79.33125 14.2625 76.884375L41.146875 50L14.2625 23.115625C11.8125 20.665625 11.8125 16.709375 14.2625 14.259375C15.484375 13.0375 17.0875 12.425 18.690625 12.425S21.896875 13.0375 23.11875 14.259375L50.003125 41.14375L76.8875 14.259375C78.109375 13.0375 79.7125 12.425 81.315625 12.425S84.521875 13.0375 85.74375 14.259375C88.19375 16.709375 88.19375 20.665625 85.74375 23.115625L58.859375 50z" />
    <glyph glyph-name="tail"
      unicode="&#xE626;"
      horiz-adv-x="131.25" d=" M0 100C5.8 79.7 30.2 27.209375 130 0C130 0 75.290625 59.6 108.909375 100H0z" />
    <glyph glyph-name="contacts"
      unicode="&#xE627;"
      horiz-adv-x="106.25" d=" M75.18125 100H42.0125C24.796875 100 12.45 90.740625 9.309375 76.315625H3.934375C1.7625 76.315625 -0.003125 74.553125 -0.003125 72.378125S1.759375 68.440625 3.934375 68.440625H8.496875V61.41875H3.934375C1.7625 61.41875 -0.003125 59.65625 -0.003125 57.48125S1.759375 53.54375 3.934375 53.54375H8.496875V46.509375H3.934375C1.7625 46.509375 -0.003125 44.746875 -0.003125 42.571875S1.759375 38.634375 3.934375 38.634375H8.496875V31.6125H3.934375C1.7625 31.6125 -0.003125 29.85 -0.003125 27.675S1.759375 23.7375 3.934375 23.7375H9.26875C11.846875 10.390625 21.353125 1.990625 35.49375 0.59375C37.478125 0.240625 39.534375 -0.00625 41.746875 -0.00625H41.75625L73.853125 0.071875C82.025 0.071875 88.246875 1.71875 92.88125 5.128125C93.128125 5.3125 93.353125 5.528125 93.559375 5.7625C93.696875 5.925 93.765625 6.125 93.878125 6.303125C101.709375 11.740625 106.34375 20.521875 106.34375 31.41875V68.828125C106.34375 88.05 94.403125 99.990625 75.18125 99.990625zM31.096875 10.25625L31.20625 14.203125C31.2375 20.503125 37.9 26.275 48.165625 28.9125C49.95625 29.375 51.171875 30.996875 51.121875 32.834375C51.0125 36.625 50.340625 41.44375 49.915625 43.50625C49.784375 44.19375 49.459375 44.828125 48.9875 45.35C46.515625 48.1 45.146875 51.715625 45.146875 55.55C45.146875 63.675 51.340625 70.290625 58.946875 70.290625S72.746875 63.678125 72.746875 55.55C72.746875 51.71875 71.378125 48.1 68.9 45.3625C68.421875 44.83125 68.103125 44.190625 67.959375 43.503125C67.540625 41.446875 66.871875 36.6375 66.75625 32.859375C66.7 31.0125 67.928125 29.384375 69.7125 28.921875C79.975 26.296875 86.634375 20.528125 86.68125 14.196875L86.7375 13.2625C86.79375 12.465625 86.828125 11.828125 86.846875 11.2625C82.9 9.240625 78.165625 8.14375 72.83125 8.14375H39.65625C38.575 8.14375 37.603125 8.275 36.596875 8.36875C34.55625 8.75625 32.703125 9.371875 31.096875 10.259375zM98.471875 31.425C98.471875 25.746875 96.934375 21.0375 94.215625 17.3625C92.709375 25.35 85.634375 32.059375 74.815625 35.625C74.99375 37.5875 75.25625 39.565625 75.49375 40.9625C78.8 45.03125 80.615625 50.16875 80.615625 55.55C80.615625 68.015625 70.89375 78.1625 58.940625 78.1625S37.265625 68.0125 37.265625 55.54375C37.265625 50.1625 39.08125 45.025 42.384375 40.95625C42.63125 39.559375 42.9 37.58125 43.071875 35.61875C30.86875 31.603125 23.3875 23.615625 23.334375 14.334375L23.303125 13.4375C20.390625 15.984375 18.39375 19.453125 17.334375 23.746875H22C24.171875 23.746875 25.9375 25.509375 25.9375 27.684375S24.175 31.621875 22 31.621875H16.36875V38.64375H22C24.171875 38.64375 25.9375 40.40625 25.9375 42.58125S24.175 46.51875 22 46.51875H16.36875V53.546875H22C24.171875 53.546875 25.9375 55.309375 25.9375 57.484375S24.175 61.421875 22 61.421875H16.36875V68.44375H22C24.171875 68.44375 25.9375 70.20625 25.9375 72.38125S24.175 76.31875 22 76.31875H17.5125C20.525 86.51875 29.759375 92.128125 42.009375 92.128125H75.178125C90.16875 92.128125 98.46875 83.834375 98.46875 68.8375V31.428125z" />
    <glyph glyph-name="share"
      unicode="&#xE628;"
      horiz-adv-x="109.375" d=" M48.859375 93.796875C52.0625 94.278125 54.384375 91.234375 54.384375 88.99375C54.384375 86.190625 52.0625 83.95 49.5 83.95H16.353125V15.484375H92.415625V35.590625C93.609375 37.83125 95.290625 39.275 97.6125 39.275C99.38125 39.275 102.584375 37.59375 102.584375 35.353125V14.615625C102.265625 11.253125 97.621875 5.96875 93.85625 5.96875H14.66875C11.465625 5.96875 6.503125 11.253125 6.503125 13.4875V85.95625C7.0625 90.440625 12.346875 94.04375 16.671875 93.803125H48.859375zM79.053125 90.99375C86.65 83.946875 94.425 76.421875 101.7125 68.89375C102.265625 68.334375 102.584375 67.2125 102.584375 66.33125C102.584375 64.65 101.14375 63.2875 99.38125 61.2875C91.85625 54.640625 84.56875 47.034375 77.05 40.06875C76.16875 39.26875 74.40625 38.70625 73.846875 38.70625C70.403125 38.70625 68.884375 41.75625 68.884375 43.66875C68.884375 47.590625 83.703125 60.1625 85.1375 61.284375L59.028125 61.603125C53.2625 61.284375 45.65625 58 41.89375 50.7125C40.2125 47.35 39.571875 43.9875 39.33125 40.625C39.0125 37.58125 36.690625 36.4625 34.36875 36.4625C32.60625 36.4625 29.725 37.825 29.725 39.825V45.109375C30.04375 46.23125 30.284375 47.590625 30.284375 48.471875C32.046875 59.3625 46.859375 71.13125 57.5875 71.13125L85.13125 71.371875C81.128125 75.85625 68.878125 85.625 68.878125 89.30625C68.878125 92.109375 70.959375 94.03125 73.840625 94.03125C75.840625 94.03125 76.484375 93.471875 79.053125 90.9875z" />
    <glyph glyph-name="flag"
      unicode="&#xE629;"
      horiz-adv-x="81.25" d=" M53.81875 76.81875C59.646875 76.81875 57.009375 76.81875 65.09375 78.090625V45.815625C61.365625 44.178125 57.275 43.725 53.81875 43.725C41.18125 43.725 41.4625 52.090625 25.815625 52.090625C22.359375 52.090625 18.359375 51.271875 14.90625 50.54375V82.546875C18.90625 84.728125 21.54375 85.184375 25.815625 85.184375C36.815625 85.184375 37.725 76.81875 53.81875 76.81875zM53.81875 87.09375C62.81875 87.09375 67.728125 91.003125 70.91875 91.003125C72 91.003125 76.365625 90.184375 76.365625 87.546875V41.090625C76.103125 40.271875 75.45625 39.453125 74.9125 39C68.55625 34.728125 60.821875 33.453125 53.81875 33.453125C38 33.453125 36.81875 41.81875 25.815625 41.81875C22.359375 41.81875 17.45 41.090625 14.634375 39V8.453125C13.996875 6.090625 10.54375 4.54375 9.0875 4.54375C7.0875 4.54375 3.63125 6.634375 3.63125 8.996875V86.546875C4.8125 92.81875 19.8125 95.45625 25.815625 95.45625C40.271875 95.45625 42.634375 87.090625 53.81875 87.090625z" />
    <glyph glyph-name="settings"
      unicode="&#xE62A;"
      horiz-adv-x="100" d=" M49.928125 40.471875C44.73125 40.471875 40.54375 44.659375 40.54375 49.85625S44.73125 59.3125 49.928125 59.3125C55.125 59.3125 59.3125 55.053125 59.3125 49.85625S55.125 40.471875 49.928125 40.471875zM49.66875 69.6875C38.73125 69.6875 29.859375 60.815625 29.859375 49.878125C29.859375 38.934375 38.73125 29.8875 49.66875 29.8875S69.93125 38.934375 69.93125 49.878125C69.93125 60.815625 60.603125 69.6875 49.66875 69.6875zM84.003125 40.4C83.209375 37.440625 81.98125 34.696875 80.54375 32.1625L80.753125 32.3875C80.753125 32.3875 88.1875 22.859375 83.503125 18.09375L81.19375 15.784375C77.65625 12.246875 69.065625 17.80625 67.1875 19.034375C64.509375 17.51875 61.55 16.290625 58.51875 15.56875L59.3125 15.496875C59.3125 15.496875 57.725 3.071875 51.009375 3.071875H48.771875C43.43125 3.071875 40.54375 14.765625 40.325 15.85C37.15 16.796875 34.2625 18.09375 31.51875 19.7625L32.384375 18.890625C32.384375 18.890625 22.709375 10.95 18.01875 15.65L15.925 17.38125C12.171875 21.128125 18.453125 31.515625 19.175 32.60625C17.803125 34.9875 16.646875 37.58125 15.853125 40.33125C14.696875 40.61875 3.075 43.434375 3.075 48.778125V51.015625C3.075 57.078125 13.903125 59.028125 15.853125 59.31875C16.575 62.0625 17.73125 64.659375 19.028125 67.115625C18.521875 67.8375 11.446875 78.015625 15.275 81.84375L17.5125 83.721875C21.84375 87.98125 30.940625 81.7 32.45625 80.61875C34.909375 81.990625 37.58125 83.146875 40.325 83.940625C40.83125 85.9625 43.646875 96.934375 48.771875 96.934375H51.009375C56.85625 96.934375 58.8125 86.684375 59.23125 84.0125C62.125 83.21875 64.796875 82.134375 67.325 80.690625C69.05625 81.771875 78.515625 87.33125 82.125 83.721875L84.21875 81.55625C88.334375 77.36875 82.26875 69.284375 80.68125 67.334375C82.125 64.80625 83.271875 62.065625 84.08125 59.178125V59.321875C84.08125 59.321875 96.925 57.734375 96.925 51.01875V48.78125C96.925 43.80625 86.384375 40.984375 84.003125 40.40625z" />
    <glyph glyph-name="bubble-2"
      unicode="&#xE62B;"
      horiz-adv-x="90.625" d=" M62.640625 95.45625H28.6C14.23125 95.45625 4.040625 87.5125 4.040625 73.1375V44.071875C4.040625 29.690625 11.978125 21.740625 26.353125 21.740625H43.60625L69.50625 4.5375L69.953125 23.021875L73.24375 23.621875C80.871875 26.74375 84.953125 33.7375 84.953125 44.0625V73.14375C84.959375 87.51875 76.996875 95.45625 62.640625 95.45625z" />
    <glyph glyph-name="windows"
      unicode="&#xE62C;"
      horiz-adv-x="93.75" d=" M85.240625 47.63125V8.671875L40.33125 17.046875V47.628125H85.240625zM35.86875 47.9625V18.096875L8.096875 23.771875V47.9625H35.86875zM35.86875 52.0375H8.096875V76.228125L35.86875 81.571875V52.0375zM85.240625 52.36875H40.33125V82.565625L85.240625 91.328125V52.36875z" />
    <glyph glyph-name="apple"
      unicode="&#xE62D;"
      horiz-adv-x="81.25" d=" M57.528125 92.659375V89.40625C57.1 82.528125 50.75625 74.95625 45.63125 73.728125C44.8375 73.515625 43.2375 73.0875 42.965625 73.0875H40.51875V76.021875C40.78125 80.98125 45.10625 88.446875 51.290625 90.846875C52.196875 91.21875 53.15625 91.646875 54.16875 92.01875C55.134375 92.284375 56.19375 92.5 57.2625 92.659375H57.528125zM71.821875 65.196875L73.046875 63.65C65.9 59.4375 63.821875 53.0375 63.821875 47.6C63.821875 39.334375 68.3 33.203125 75.2875 29.95C73.6875 25.41875 71.44375 20.884375 68.19375 16.24375C64.51875 11.184375 60.775 7.44375 56.303125 7.44375C51.45 7.44375 47.721875 10.8625 42.225 10.8625C37.053125 10.8625 32.30625 7.34375 27.9875 7.34375C21.746875 7.34375 16.528125 15.45 12.95625 21.15625C10.609375 24.83125 9.1125 29.15625 8.05 32.828125C7.14375 36.240625 5.965625 41.465625 5.965625 45.040625V47.759375C6.340625 61.784375 15.878125 71.809375 27.084375 71.809375C32.05 71.809375 38.228125 68.078125 41.05625 68.078125C43.828125 68.078125 50.49375 72.078125 56.471875 72.078125C60.89375 72.078125 67.93125 70.053125 71.825 65.2z" />
    <glyph glyph-name="android"
      unicode="&#xE62E;"
      horiz-adv-x="81.25" d=" M63.896875 51.734375V83.34375C63.896875 83.34375 72.1375 83.34375 72.1375 74.715625V60.365625C72.1375 51.540625 63.896875 51.7375 63.896875 51.7375zM52.84375 23.959375L52.946875 15.525C52.946875 13.15 51.153125 11.20625 48.875 11.20625S44.75 13.14375 44.75 15.525V22.9875C41.646875 22.75 39.175 22.8 39.175 22.8L36.509375 22.846875V18.3875C36.509375 16.0125 34.6625 14.06875 32.384375 14.06875C30.153125 14.06875 28.3125 16.00625 28.3125 18.3875L28.2625 23.765625C20.45625 26.190625 20.06875 30.896875 20.06875 30.896875V57.36875C20.06875 60.084375 22.83125 60.228125 22.83125 60.228125L58.36875 60.18125C60.9875 60.18125 61.0875 57.271875 61.0875 57.271875V30.80625C61.09375 27.2125 57.25625 25.178125 52.846875 23.965625zM20.06875 63.23125C20.06875 70.01875 23.025 76.465625 27.6375 80.78125C28.165625 81.315625 24.4375 86.015625 25.740625 88.73125C28.06875 89.021875 30.6375 83.15625 31.271875 83.54375C34.084375 85.14375 37.23125 86.1125 40.628125 86.1125S46.6875 85.434375 49.5 83.7375C49.984375 83.446875 52.796875 89.021875 55.5125 88.78125C55.996875 83.303125 52.453125 81.8 52.94375 81.3625C57.9375 77.046875 61.09375 70.35625 61.09375 63.23125C61.0875 63.23125 20.06875 62.9875 20.06875 63.23125zM48.671875 68.75625C51 68.75625 52.8375 70.69375 52.8375 73.071875S51 77.3875 48.671875 77.3875C46.440625 77.3875 44.55 75.446875 44.55 73.071875C44.55625 70.696875 46.440625 68.75625 48.671875 68.75625zM36.459375 73.121875C36.459375 75.496875 34.6125 77.3875 32.38125 77.3875C30.103125 77.3875 28.309375 75.496875 28.309375 73.121875C28.309375 70.79375 30.103125 68.85625 32.38125 68.85625C34.6125 68.85625 36.459375 70.796875 36.459375 73.121875zM9.1125 42.915625V57.265625C9.1125 66.090625 17.353125 65.89375 17.353125 65.89375V34.278125C17.353125 34.278125 9.1125 34.278125 9.1125 42.9125z" />
    <glyph glyph-name="calendar"
      unicode="&#xE62F;"
      horiz-adv-x="100" d=" M22.115625 62.38125V53.2375H34.1625V62.38125H22.115625zM22.115625 46.7625V37.61875H34.1625V46.7625H22.115625zM22.115625 30.953125V22.05H34.1625V30.953125H22.115625zM43.925 62.38125V53.2375H56.1625V62.38125H43.925zM43.925 46.7625V37.61875H56.1625V46.7625H43.925zM43.925 30.953125V22.05H56.1625V30.953125H43.925zM65.971875 62.38125V53.2375H77.975V62.38125H65.971875zM65.971875 46.7625V37.61875H77.975V46.7625H65.971875zM65.971875 30.953125V22.05H77.975V30.953125H65.971875zM65.971875 22.046875H77.975V30.95H65.971875V22.046875zM65.971875 37.61875H77.975V46.7625H65.971875V37.61875zM65.971875 62.38125V53.2375H77.975V62.38125H65.971875zM43.925 22.046875H56.1625V30.95H43.925V22.046875zM43.925 37.61875H56.1625V46.7625H43.925V37.61875zM43.925 53.2375H56.1625V62.38125H43.925V53.2375zM22.115625 22.046875H34.1625V30.95H22.115625V22.046875zM22.115625 37.61875H34.1625V46.7625H22.115625V37.61875zM22.115625 53.2375H34.1625V62.38125H22.115625V53.2375zM93.353125 90.428125H77.978125C78.215625 90.665625 78.453125 90.85625 77.978125 97.334375C77.55 99.334375 75.978125 100 75.115625 100C73.978125 100 72.40625 99.09375 72.215625 97.7625C71.734375 90.85625 71.978125 90.665625 71.978125 90.428125H53.06875V97.334375C53.06875 98.66875 51.496875 100 49.93125 100C48.8375 100 47.259375 99.334375 47.06875 97.334375V90.428125H27.925C28.115625 90.665625 28.353125 90.85625 27.925 97.334375C27.44375 99.334375 25.925 100 25.01875 100C23.921875 100 22.353125 99.096875 22.1125 97.7625C21.684375 90.85625 21.875 90.66875 21.875 90.428125H6.540625C3.86875 90.428125 -0.603125 85.7625 0.065625 82.85625V7.809375C0.065625 4.2375 3.6375 0.428125 7.88125 0H92.025C95.7875 0 99.596875 3.809375 100.025 8V82.85625C100.01875 85.759375 96.6875 90 93.353125 90.428125zM93.78125 7.809375C93.5375 7.14375 92.875 6.2375 92.209375 6.2375H7.6375C7.209375 6.475 6.309375 7.14375 6.309375 7.571875V83.096875C6.546875 83.7625 7.88125 84.621875 8.309375 84.43125H21.88125V77.525C22.553125 75.525 23.928125 75.05 25.025 75.05C25.93125 75.05 27.2625 75.525 28.11875 77.2875V84.43125H46.834375V78.19375C47.5 75.71875 48.834375 75.05 49.928125 75.05C51.49375 75.05 52.828125 75.95625 53.25625 77.95625V84.43125H71.975V77.525C72.640625 75.525 73.975 75.05 75.1125 75.05C75.975 75.05 77.309375 75.525 78.209375 77.2875V84.43125H92.01875C92.684375 84.19375 93.78125 83.765625 93.78125 83.096875V7.8125zM65.971875 22.046875H77.975V30.95H65.971875V22.046875zM65.971875 37.61875H77.975V46.7625H65.971875V37.61875zM65.971875 53.2375H77.975V62.38125H65.971875V53.2375zM43.925 22.046875H56.1625V30.95H43.925V22.046875zM43.925 37.61875H56.1625V46.7625H43.925V37.61875zM43.925 53.2375H56.1625V62.38125H43.925V53.2375zM22.115625 22.046875H34.1625V30.95H22.115625V22.046875zM22.115625 37.61875H34.1625V46.7625H22.115625V37.61875zM22.115625 53.2375H34.1625V62.38125H22.115625V53.2375zM22.115625 62.38125V53.2375H34.1625V62.38125H22.115625zM22.115625 46.7625V37.61875H34.1625V46.7625H22.115625zM22.115625 30.953125V22.05H34.1625V30.953125H22.115625zM43.925 62.38125V53.2375H56.1625V62.38125H43.925zM43.925 46.7625V37.61875H56.1625V46.7625H43.925zM43.925 30.953125V22.05H56.1625V30.953125H43.925zM65.971875 62.38125V53.2375H77.975V62.38125H65.971875zM65.971875 46.7625V37.61875H77.975V46.7625H65.971875zM65.971875 30.953125V22.05H77.975V30.953125H65.971875zM65.971875 30.953125V22.05H77.975V30.953125H65.971875zM65.971875 46.7625V37.61875H77.975V46.7625H65.971875zM65.971875 62.38125V53.2375H77.975V62.38125H65.971875zM43.925 30.953125V22.05H56.1625V30.953125H43.925zM43.925 46.7625V37.61875H56.1625V46.7625H43.925zM43.925 62.38125V53.2375H56.1625V62.38125H43.925zM22.115625 30.953125V22.05H34.1625V30.953125H22.115625zM22.115625 46.7625V37.61875H34.1625V46.7625H22.115625zM22.115625 62.38125V53.2375H34.1625V62.38125H22.115625zM65.971875 30.953125V22.05H77.975V30.953125H65.971875zM65.971875 46.7625V37.61875H77.975V46.7625H65.971875zM65.971875 62.38125V53.2375H77.975V62.38125H65.971875zM43.925 30.953125V22.05H56.1625V30.953125H43.925zM43.925 46.7625V37.61875H56.1625V46.7625H43.925zM43.925 62.38125V53.2375H56.1625V62.38125H43.925zM22.115625 30.953125V22.05H34.1625V30.953125H22.115625zM22.115625 46.7625V37.61875H34.1625V46.7625H22.115625zM22.115625 62.38125V53.2375H34.1625V62.38125H22.115625zM22.115625 62.38125V53.2375H34.1625V62.38125H22.115625zM43.925 62.38125V53.2375H56.1625V62.38125H43.925zM65.971875 62.38125V53.2375H77.975V62.38125H65.971875zM22.115625 46.7625V37.61875H34.1625V46.7625H22.115625zM43.925 46.7625V37.61875H56.1625V46.7625H43.925zM65.971875 46.7625V37.61875H77.975V46.7625H65.971875zM22.115625 30.953125V22.05H34.1625V30.953125H22.115625zM43.925 30.953125V22.05H56.1625V30.953125H43.925zM65.971875 30.953125V22.05H77.975V30.953125H65.971875z" />
    <glyph glyph-name="download"
      unicode="&#xE630;"
      horiz-adv-x="100" d=" M30 100V60H10L50 20L90 60H70V100zM0 10H100V0H0V10z" />
    <glyph glyph-name="globe"
      unicode="&#xE631;"
      horiz-adv-x="100" d=" M28.134375 68.75C28.134375 68.75 27.534375 65.65 31.234375 65.65V59.4C31.234375 59.4 37.234375 58.6 40.634375 53.15C40.634375 53.15 43.734375 53.04375 43.734375 56.25C43.734375 59.45 42.384375 62 46.884375 65.65H53.134375C53.134375 65.65 56.234375 69.15 56.234375 71.9C56.234375 71.9 62.484375 71.75 62.484375 75C62.484375 75 44.384375 85 28.134375 68.75zM71.884375 43.75H68.734375C58.584375 53.89375 55.534375 53.15 53.134375 53.15C50.684375 53.15 49.984375 50 49.984375 50V37.5C55.534375 31.95 56.234375 27.39375 56.234375 25C56.234375 22.6 59.384375 21.9 59.384375 21.9C65.784375 21.9 74.984375 37.84375 74.984375 40.65C74.984375 43.4 71.884375 43.75 71.884375 43.75zM71.884375 43.75H68.734375C58.584375 53.89375 55.534375 53.15 53.134375 53.15C50.684375 53.15 49.984375 50 49.984375 50V37.5C55.534375 31.95 56.234375 27.39375 56.234375 25C56.234375 22.6 59.384375 21.9 59.384375 21.9C65.784375 21.9 74.984375 37.84375 74.984375 40.65C74.984375 43.4 71.884375 43.75 71.884375 43.75zM56.234375 71.9C56.234375 71.9 62.484375 71.75 62.484375 75C62.484375 75 44.384375 85 28.134375 68.75C28.134375 68.75 27.534375 65.65 31.234375 65.65V59.4C31.234375 59.4 37.234375 58.6 40.634375 53.15C40.634375 53.15 43.734375 53.04375 43.734375 56.25C43.734375 59.45 42.384375 62 46.884375 65.65H53.134375C53.134375 65.65 56.234375 69.15 56.234375 71.9zM49.984375 100C22.384375 100 -0.015625 77.6 -0.015625 50C-0.015625 22.39375 22.384375 0 49.984375 0C77.590625 0 99.984375 22.39375 99.984375 50C99.984375 77.6 77.584375 100 49.984375 100zM49.984375 8.1C26.834375 8.1 8.084375 26.85 8.084375 50S26.834375 91.95 49.984375 91.95S91.940625 73.15 91.940625 50S73.134375 8.1 49.984375 8.1zM71.884375 43.75H68.734375C58.584375 53.89375 55.534375 53.15 53.134375 53.15C50.684375 53.15 49.984375 50 49.984375 50V37.5C55.534375 31.95 56.234375 27.39375 56.234375 25C56.234375 22.6 59.384375 21.9 59.384375 21.9C65.784375 21.9 74.984375 37.84375 74.984375 40.65C74.984375 43.4 71.884375 43.75 71.884375 43.75zM56.234375 71.9C56.234375 71.9 62.484375 71.75 62.484375 75C62.484375 75 44.384375 85 28.134375 68.75C28.134375 68.75 27.534375 65.65 31.234375 65.65V59.4C31.234375 59.4 37.234375 58.6 40.634375 53.15C40.634375 53.15 43.734375 53.04375 43.734375 56.25C43.734375 59.45 42.384375 62 46.884375 65.65H53.134375C53.134375 65.65 56.234375 69.15 56.234375 71.9zM28.134375 68.75C28.134375 68.75 27.534375 65.65 31.234375 65.65V59.4C31.234375 59.4 37.234375 58.6 40.634375 53.15C40.634375 53.15 43.734375 53.04375 43.734375 56.25C43.734375 59.45 42.384375 62 46.884375 65.65H53.134375C53.134375 65.65 56.234375 69.15 56.234375 71.9C56.234375 71.9 62.484375 71.75 62.484375 75C62.484375 75 44.384375 85 28.134375 68.75zM71.884375 43.75H68.734375C58.584375 53.89375 55.534375 53.15 53.134375 53.15C50.684375 53.15 49.984375 50 49.984375 50V37.5C55.534375 31.95 56.234375 27.39375 56.234375 25C56.234375 22.6 59.384375 21.9 59.384375 21.9C65.784375 21.9 74.984375 37.84375 74.984375 40.65C74.984375 43.4 71.884375 43.75 71.884375 43.75zM71.884375 43.75H68.734375C58.584375 53.89375 55.534375 53.15 53.134375 53.15C50.684375 53.15 49.984375 50 49.984375 50V37.5C55.534375 31.95 56.234375 27.39375 56.234375 25C56.234375 22.6 59.384375 21.9 59.384375 21.9C65.784375 21.9 74.984375 37.84375 74.984375 40.65C74.984375 43.4 71.884375 43.75 71.884375 43.75zM28.134375 68.75C28.134375 68.75 27.534375 65.65 31.234375 65.65V59.4C31.234375 59.4 37.234375 58.6 40.634375 53.15C40.634375 53.15 43.734375 53.04375 43.734375 56.25C43.734375 59.45 42.384375 62 46.884375 65.65H53.134375C53.134375 65.65 56.234375 69.15 56.234375 71.9C56.234375 71.9 62.484375 71.75 62.484375 75C62.484375 75 44.384375 85 28.134375 68.75zM71.884375 43.75H68.734375C58.584375 53.89375 55.534375 53.15 53.134375 53.15C50.684375 53.15 49.984375 50 49.984375 50V37.5C55.534375 31.95 56.234375 27.39375 56.234375 25C56.234375 22.6 59.384375 21.9 59.384375 21.9C65.784375 21.9 74.984375 37.84375 74.984375 40.65C74.984375 43.4 71.884375 43.75 71.884375 43.75zM28.134375 68.75C28.134375 68.75 27.534375 65.65 31.234375 65.65V59.4C31.234375 59.4 37.234375 58.6 40.634375 53.15C40.634375 53.15 43.734375 53.04375 43.734375 56.25C43.734375 59.45 42.384375 62 46.884375 65.65H53.134375C53.134375 65.65 56.234375 69.15 56.234375 71.9C56.234375 71.9 62.484375 71.75 62.484375 75C62.484375 75 44.384375 85 28.134375 68.75zM71.884375 43.75H68.734375C58.584375 53.89375 55.534375 53.15 53.134375 53.15C50.684375 53.15 49.984375 50 49.984375 50V37.5C55.534375 31.95 56.234375 27.39375 56.234375 25C56.234375 22.6 59.384375 21.9 59.384375 21.9C65.784375 21.9 74.984375 37.84375 74.984375 40.65C74.984375 43.4 71.884375 43.75 71.884375 43.75zM28.134375 68.75C28.134375 68.75 27.534375 65.65 31.234375 65.65V59.4C31.234375 59.4 37.234375 58.6 40.634375 53.15C40.634375 53.15 43.734375 53.04375 43.734375 56.25C43.734375 59.45 42.384375 62 46.884375 65.65H53.134375C53.134375 65.65 56.234375 69.15 56.234375 71.9C56.234375 71.9 62.484375 71.75 62.484375 75C62.484375 75 44.384375 85 28.134375 68.75z" />
    <glyph glyph-name="secret"
      unicode="&#xE632;"
      horiz-adv-x="112.5" d=" M113.503125 67.678125C113.503125 58.646875 88.09375 51.3875 56.753125 51.3875S0.003125 58.64375 0.003125 67.678125C0.003125 73.521875 10.75 78.640625 26.871875 81.521875C26.871875 81.565625 26.828125 81.60625 26.828125 81.65V91.4C26.828125 96.128125 30.696875 100 35.428125 100H78.421875C83.190625 100 87.021875 96.13125 87.021875 91.4V81.43125C102.925 78.559375 113.50625 73.4875 113.50625 67.678125zM89.646875 50.734375C86.134375 30.86875 74.134375 4.878125 56.80625 4.878125S27.609375 30.778125 24.084375 50.646875C22.49375 50.990625 20.296875 51.76875 18.834375 52.15625C22.184375 29.8875 36.15625 0.003125 56.75 0.003125C77.3875 0.003125 91.359375 29.8875 94.665625 52.15625C93.209375 51.765625 91.24375 51.078125 89.65 50.734375zM83.103125 46.24375C83.103125 40.315625 78.284375 35.496875 72.35625 35.496875C68.44375 35.496875 65.009375 37.603125 63.11875 40.746875C62.99375 41.215625 62.775 41.659375 62.475 42.04375C62.475 42.0875 62.475 42.128125 62.43125 42.1625C62.3875 42.253125 62.340625 42.33125 62.340625 42.428125V42.253125C61.18125 43.934375 59.24375 44.115625 57.05625 44.115625C54.815625 44.115625 52.8875 43.8875 51.725 42.16875C51.68125 42.125 51.640625 42.084375 51.640625 42.05C51.59375 42.003125 51.55 41.959375 51.55 41.875C51.421875 41.53125 51.25 41.23125 51.08125 40.928125C49.228125 37.703125 45.75 35.503125 41.746875 35.503125C35.8125 35.503125 31 40.321875 31 46.25C31 46.8125 31.046875 47.375 31.128125 47.8875C38.825 46.76875 47.55 46.125 56.75 46.125C66.209375 46.125 75.1125 46.76875 82.984375 47.978125C83.065625 47.415625 83.103125 46.853125 83.103125 46.246875z" />
    <glyph glyph-name="public"
      unicode="&#xE633;"
      horiz-adv-x="71.875" d=" M65.5375 73.971875V64.14375H56.31875V74.328125C54.175 85.578125 46.03125 91.9125 37.2 91.9125C26.203125 91.9125 18.409375 81.690625 18.409375 72.578125V50.75625H71.559375C72.26875 50.75625 75.08125 49.365625 75.08125 48.3V2.446875C74.71875 1.375 73.659375 -0.003125 72.625 -0.003125H2.1375C1.421875 0.315625 0.709375 1.025 0 1.740625V48.659375C2.49375 52.1875 5.659375 50.4375 9.575 50.759375V73.615625C12.3875 90.85 24.45625 100 37.203125 100C53.1125 100 65.5375 86.29375 65.5375 73.971875z" />
    <glyph glyph-name="private"
      unicode="&#xE634;"
      horiz-adv-x="78.125" d=" M73.121875 50.765625H67.0875V73.978125C67.0875 86.29375 54.65 100.021875 38.765625 100.021875C26.01875 100.021875 13.953125 90.846875 11.11875 73.60625V50.7625C7.240625 50.453125 4.0375 52.178125 1.575 48.66875V1.75C2.253125 1.0125 2.990625 0.334375 3.73125 0.025H74.16875C75.215625 0.025 76.2625 1.378125 76.63125 2.425V48.296875C76.63125 49.34375 73.859375 50.759375 73.121875 50.759375zM19.984375 72.5625C19.984375 81.675 27.74375 91.896875 38.7625 91.896875C47.56875 91.896875 55.75625 85.55625 57.9125 74.35V50.76875H19.984375V72.565625z" />
    <glyph glyph-name="adminpanel"
      unicode="&#xE635;"
      horiz-adv-x="100" d=" M46.890625 42.190625C48.884375 44.421875 48.6375 47.14375 49.621875 49.63125C48.390625 49.384375 46.890625 48.884375 45.653125 48.6375C44.415625 48.14375 42.921875 48.14375 42.175 47.14375C35.728125 41.196875 29.28125 34.496875 23.31875 28.2875C19.109375 24.325 6.946875 13.153125 6.946875 10.43125C6.946875 8.69375 7.684375 6.953125 10.171875 6.953125C10.671875 6.953125 11.665625 7.20625 12.15625 7.7C23.8125 19.109375 35.728125 30.528125 46.89375 42.190625zM92.053125 15.3875C80.64375 27.296875 68.971875 38.715625 57.315625 50.378125C56.078125 46.9 55.084375 42.4375 53.590625 38.959375C64.2625 28.2875 74.93125 17.371875 85.85 7.2C86.34375 6.7 87.84375 6.453125 88.328125 6.453125C90.8125 6.453125 93.790625 8.190625 93.790625 11.6625C93.790625 11.909375 92.54375 14.89375 92.053125 15.3875zM92.8 91.56875C92.553125 91.815625 92.053125 92.30625 91.315625 92.80625L83.621875 87.596875V83.628125H87.346875L92.8 91.56875zM43.16875 75.434375C43.16875 85.359375 34.7375 93.8 24.565625 93.790625C24.065625 93.790625 23.8125 93.790625 23.31875 93.54375C29.51875 86.84375 34.2375 84.1125 34.2375 77.909375C34.2375 71.453125 28.784375 66 22.328125 66S14.134375 69.725 6.69375 76.671875C6.69375 76.425 6.446875 76.178125 6.446875 74.6875C7.69375 63.525 16.371875 57.078125 24.8125 57.06875C28.5375 57.06875 31.5125 58.80625 32.753125 58.80625C34.984375 58.80625 35.73125 56.328125 38.70625 53.84375L50.3625 57.321875C49.615625 58.059375 41.43125 65.50625 41.43125 67.49375C41.43125 68.4875 43.16875 72.45625 43.16875 75.434375zM49.378125 75.434375C49.378125 74.6875 48.384375 69.234375 48.384375 68.734375C48.384375 67.9875 53.8375 62.778125 56.5625 60.046875L79.15 82.38125V89.58125C83.11875 92.803125 91.059375 98.5125 91.80625 98.5125C92.3 98.5125 98.50625 92.559375 98.50625 92.065625C98.50625 91.31875 92.796875 83.38125 89.565625 79.1625H82.625L59.796875 56.828125C72.2 44.171875 86.340625 30.771875 98.25625 17.621875C99.25 16.628125 99.99375 13.396875 99.99375 11.66875C99.99375 4.728125 94.53125 0.00625 88.321875 0.00625C86.84375 0.00625 83.6125 0.753125 82.621875 1.74375C71.2125 11.66875 60.29375 23.584375 49.125 34.503125C38.209375 23.584375 27.284375 12.16875 16.11875 1.996875C14.38125 0.503125 12.15 0.003125 10.1625 0.003125C3.70625 -0.003125 -0.009375 5.2125 -0.009375 10.428125C-0.009375 12.159375 0.2375 14.64375 1.475 15.88125C11.890625 27.04375 23.309375 37.9625 34.48125 49.13125C33.4875 50.125 32.24375 51.85625 31.503125 51.85625C31.009375 51.85625 25.303125 50.8625 24.55625 50.8625C16.8625 50.8625 6.446875 55.078125 1.975 65.996875C1.228125 68.234375 0.2375 72.70625 0.2375 73.196875V77.665625C0.484375 78.903125 0.7375 86.353125 4.453125 86.353125C7.93125 86.353125 17.35625 72.2125 22.31875 72.2125C25.540625 72.2125 27.771875 75.190625 27.771875 77.665625C27.778125 82.875 13.63125 92.3 13.63125 95.53125C13.63125 99.746875 23.809375 99.99375 24.803125 99.99375C38.94375 99.99375 49.36875 88.584375 49.36875 75.428125z" />
    <glyph glyph-name="yes"
      unicode="&#xE636;"
      horiz-adv-x="118.75" d=" M118.18125 81.271875L39.090625 0L0 45.81875L16.728125 63.090625L39.81875 36L102.18125 100z" />
    <glyph glyph-name="no"
      unicode="&#xE637;"
      horiz-adv-x="100" d=" M100 80L80 100L50 70L20 100L0 80L30 50L0 20L20 0L50 30L80 0L100 20L70 50z" />
    <glyph glyph-name="image"
      unicode="&#xE638;"
      horiz-adv-x="112.5" d=" M94.590625 67.7V39.753125C87.45625 47.18125 80.325 54.871875 73.1875 62.034375C72.659375 62.5625 72.159375 62.3 71.634375 62.3C69.34375 62.3 68.846875 60.978125 66.028125 57.778125C56.603125 48.5 39.01875 29.415625 38.490625 29.415625C37.49375 29.415625 28.56875 40.575 26.278125 40.575C23.959375 40.575 12.509375 27.834375 8.165625 23.078125V82.4375H79.621875V90.921875H3.81875C2.29375 91.446875 0.003125 89.3375 0.003125 87.75V3.171875C0.003125 2.375 2.028125 0.790625 3.321875 0H99.175C100.4625 0 102.25625 1.584375 102.75625 3.434375V67.696875H94.59375zM94.590625 8.484375H8.1625V13.8L26.275 32.61875C26.775 32.0875 35.9625 21.459375 38.4875 21.459375C39.015625 21.459375 39.515625 21.459375 40.04375 21.990625C50.49375 32.61875 61.18125 43.74375 71.63125 54.34375L94.584375 30.2125V8.484375zM19.875 60.7125C19.875 54.078125 24.71875 48.5 31.61875 48.5C37.990625 48.5 43.596875 53.8125 43.596875 60.7125C43.596875 66.790625 38.4875 73.159375 31.61875 73.159375C24.71875 73.15625 19.875 67.34375 19.875 60.7125zM37.490625 60.7125C37.490625 56.984375 34.409375 54.60625 31.61875 54.60625C28.0375 54.60625 26.0125 57.5125 26.0125 60.7125C26.0125 63.884375 28.0375 66.790625 31.61875 66.790625S37.490625 63.88125 37.490625 60.7125zM31.61875 73.159375C24.71875 73.159375 19.875 67.346875 19.875 60.7125S24.71875 48.5 31.61875 48.5C37.990625 48.5 43.596875 53.8125 43.596875 60.7125C43.596875 66.790625 38.4875 73.159375 31.61875 73.159375zM31.61875 54.60625C28.0375 54.60625 26.0125 57.5125 26.0125 60.7125C26.0125 63.884375 28.0375 66.790625 31.61875 66.790625S37.490625 63.884375 37.490625 60.7125C37.490625 56.984375 34.409375 54.60625 31.61875 54.60625zM31.61875 73.159375C24.71875 73.159375 19.875 67.346875 19.875 60.7125S24.71875 48.5 31.61875 48.5C37.990625 48.5 43.596875 53.8125 43.596875 60.7125C43.596875 66.790625 38.4875 73.159375 31.61875 73.159375zM31.61875 54.60625C28.0375 54.60625 26.0125 57.5125 26.0125 60.7125C26.0125 63.884375 28.0375 66.790625 31.61875 66.790625S37.490625 63.884375 37.490625 60.7125C37.490625 56.984375 34.409375 54.60625 31.61875 54.60625zM111.925 91.19375H103.11875V100H94.3125V91.19375H85.50625V82.3875H94.3125V73.58125H103.11875V82.3875H111.925z" />
    <glyph glyph-name="add-outline"
      unicode="&#xE639;"
      horiz-adv-x="100" d=" M34.9 23.140625C37.4875 21.6875 40.725 20.921875 44.525 20.921875L73.5625 21.003125C78.61875 21.003125 82.5 21.809375 85.33125 23.465625L85.209375 25.934375L85.16875 26.825C85.084375 32.734375 79.05625 38.06875 69.8 40.540625C68.18125 40.94375 67.090625 42.48125 67.13125 44.18125C67.253125 47.740625 67.859375 52.190625 68.221875 54.13125C68.34375 54.778125 68.625 55.34375 69.075 55.828125C71.29375 58.415625 72.55 61.771875 72.55 65.33125C72.55 72.89375 66.96875 79.08125 60.09375 79.08125S47.596875 72.89375 47.596875 65.33125C47.596875 61.771875 48.853125 58.415625 51.071875 55.828125C51.515625 55.34375 51.803125 54.778125 51.925 54.13125C52.328125 52.190625 52.9375 47.7 53.015625 44.1875C53.05625 42.4875 51.9625 40.946875 50.346875 40.546875C41.04375 38.078125 35.059375 32.70625 35.01875 26.83125L34.896875 23.146875zM44.565625 13.6C38.41875 13.6 33.240625 15.1375 29.196875 18.25C28.265625 18.9375 27.7 20.06875 27.740625 21.284375L27.903125 26.946875C27.94375 35.603125 34.696875 43.0375 45.7375 46.7625C45.575 48.621875 45.334375 50.44375 45.13125 51.7375C42.1375 55.540625 40.48125 60.3125 40.48125 65.325C40.48125 76.93125 49.296875 86.396875 60.096875 86.396875S79.671875 76.934375 79.671875 65.325C79.671875 60.309375 78.053125 55.5375 75.0625 51.7375C74.81875 50.44375 74.578125 48.621875 74.415625 46.7625C85.453125 43.0375 92.20625 35.596875 92.290625 26.90625V26.4625C92.56875 22.378125 92.56875 20.4375 91.365625 18.98125C91.2 18.734375 91 18.540625 90.759375 18.375C86.59375 15.225 80.971875 13.684375 73.571875 13.684375L44.56875 13.603125zM31.7875 66.178125H19.653125V78.3125H11.565625V66.178125H-0.565625V58.090625H11.565625V45.95625H19.653125V58.090625H31.7875z" />
    <glyph glyph-name="glasses"
      unicode="&#xE63A;"
      horiz-adv-x="112.5" d=" M93.35625 42.609375C93.35625 49.596875 87.95 55.453125 80.5125 55.453125C73.753125 55.453125 67.89375 49.59375 67.89375 42.609375C67.89375 35.396875 73.753125 29.990625 80.7375 29.990625C87.95 29.990625 93.35625 35.396875 93.35625 42.609375zM45.125 42.609375C45.125 48.921875 39.71875 55.453125 32.28125 55.459375C27.096875 55.459375 20.790625 52.08125 19.6625 44.640625V40.5875C19.6625 37.428125 24.621875 31.796875 27.775 30.89375C29.353125 30.440625 31.60625 29.99375 32.28125 29.99375C39.040625 29.99375 45.125 35.4 45.125 42.6125zM32.95625 78.221875C32.95625 75.96875 27.321875 66.05 26.64375 63.571875L26.871875 63.11875C28.896875 64.025 30.703125 63.79375 32.278125 63.79375C37.684375 63.79375 41.74375 62.89375 47.375 57.934375H65.63125C70.815625 62.89375 75.76875 63.79375 80.509375 63.79375C81.18125 63.79375 84.5625 63.56875 86.36875 63.346875C85.921875 64.021875 80.05625 75.290625 80.05625 77.996875C80.05625 79.803125 81.184375 81.603125 83.4375 81.603125C83.884375 81.603125 85.015625 81.378125 85.690625 80.93125C89.071875 77.771875 90.421875 72.81875 92.228125 69.2125C95.38125 63.128125 98.3125 56.59375 100.340625 50.28125C101.015625 48.25625 101.91875 44.875 101.91875 42.840625C101.91875 30.671875 92 21.434375 80.734375 21.434375C73.296875 21.434375 64.278125 25.4875 60.45 35.85625C60.003125 37.209375 59.55 39.4625 59.55 39.915625V46.896875H53.24375C53.24375 45.54375 53.46875 43.065625 53.46875 42.615625C53.46875 30.671875 43.55 21.43125 32.284375 21.43125C20.1125 21.434375 11.1 31.346875 11.1 42.615625C11.1 52.08125 22.1375 72.590625 25.521875 79.128125C26.428125 80.934375 28.228125 81.60625 29.58125 81.60625C31.609375 81.60625 32.9625 79.80625 32.9625 78.228125z" />
    <glyph glyph-name="users"
      unicode="&#xE63B;"
      horiz-adv-x="121.875" d=" M47.69375 24.615625C41.540625 24.615625 33.846875 26.921875 28.4625 33.846875C14.615625 31.540625 6.925 15.384375 6.925 6.15625H89.23125C88.4625 10.771875 86.925 15.3875 84.615625 20.003125C83.078125 23.85 73.078125 33.85 67.69375 33.85C67.69375 33.85 61.540625 27.696875 53.846875 25.3875C51.540625 24.61875 48.4625 24.61875 47.69375 24.61875zM62.30625 71.5375C60 78.459375 53.075 81.5375 48.459375 81.5375C41.5375 81.5375 33.84375 76.921875 32.30625 69.23125V43.846875C32.30625 40.76875 37.690625 33.078125 42.30625 32.309375C44.6125 32.309375 46.921875 31.540625 47.690625 31.540625C54.6125 31.540625 62.30625 36.15625 63.84375 43.85V67.696875C63.84375 69.234375 62.30625 70.775 62.30625 71.54375zM70.76875 66.921875V46.153125C70.76875 43.846875 70 42.30625 69.23125 40C87.69375 35.384375 95.384375 16.153125 95.384375 4.615625C95.384375 3.846875 95.384375 0 92.30625 0H2.30625C1.5375 0 -0.003125 1.5375 -0.003125 1.5375V7.690625C-0.003125 9.996875 0.765625 12.30625 1.534375 14.6125C1.534375 16.15 2.303125 18.459375 3.071875 19.996875C5.378125 26.15 11.534375 33.84375 19.225 38.459375C19.225 38.459375 25.378125 40.765625 25.378125 41.5375S24.609375 43.84375 24.609375 44.615625V68.4625C26.91875 81.540625 36.915625 87.69375 47.6875 87.69375C59.996875 87.69375 70.765625 78.4625 70.765625 66.925zM98.4625 79.23125V58.4625C98.4625 56.15625 96.925 53.078125 96.925 53.078125C96.925 52.309375 101.540625 51.540625 103.846875 50C112.309375 45.384375 118.4625 36.921875 120.76875 30C122.30625 26.153125 123.078125 20.76875 123.078125 17.69375C123.078125 15.3875 122.309375 13.078125 119.23125 13.078125H103.846875C101.5375 13.846875 101.5375 14.615625 101.5375 16.15625S103.075 19.234375 104.615625 19.234375H116.921875V22.3125C115.384375 30.775 107.690625 45.390625 94.6125 47.696875C93.075 45.390625 86.15 40.003125 83.075 40.003125C80.76875 40.003125 79.996875 41.540625 79.996875 43.08125C79.996875 43.85 79.996875 44.61875 80.765625 44.61875C82.303125 45.3875 83.84375 46.15625 86.15 47.696875S89.996875 52.3125 90.765625 53.85C91.534375 54.61875 91.534375 56.15625 92.303125 56.928125V80.775C89.996875 90.00625 83.071875 93.08125 76.15 93.08125C65.38125 93.08125 63.840625 86.159375 60.765625 86.159375C58.459375 86.159375 57.6875 87.696875 57.6875 89.2375C56.15 90.775 56.91875 92.315625 57.6875 92.315625C62.303125 96.93125 69.996875 100.009375 74.609375 100.009375C87.6875 100.009375 98.45625 90.778125 98.45625 79.240625z" />
    <glyph glyph-name="v-bullets"
      unicode="&#xE63C;"
      horiz-adv-x="18.75" d=" M10 100C15.5 100 20 95.5 20 90S15.5 80 10 80S0 84.5 0 90S4.5 100 10 100zM10 60C15.5 60 20 55.5 20 50S15.5 40 10 40S0 44.5 0 50S4.5 60 10 60zM10 20C15.5 20 20 15.5 20 10S15.5 0 10 0S0 4.5 0 10S4.5 20 10 20z" />
    <glyph glyph-name="plus-square"
      unicode="&#xE63D;"
      horiz-adv-x="96.875" d=" M71.2125 0H26.665625C12.121875 0 0 12.121875 0 26.665625V73.33125C0 87.875 12.121875 99.996875 26.665625 99.996875H71.2125C86.0625 99.996875 97.878125 87.875 97.878125 73.33125V26.96875C97.878125 12.11875 85.75625 0 71.2125 0zM26.665625 90.909375C16.96875 90.909375 9.090625 83.03125 9.090625 73.334375V26.971875C9.090625 16.971875 16.96875 9.09375 26.665625 9.09375H71.2125C80.909375 9.09375 88.7875 16.971875 88.7875 26.66875V73.334375C88.7875 83.03125 80.909375 90.909375 71.2125 90.909375H26.665625zM63.940625 53.03125H54.85V62.121875H45.759375V53.03125H36.66875V43.940625H45.759375V34.85H54.85V43.940625H63.940625z" />
    <glyph glyph-name="forward"
      unicode="&#xE63E;"
      horiz-adv-x="100" d=" M-0.04375 49.24375L46.3 15.54375V36.421875C50.45 38.334375 54.653125 38.09375 57.975 38.09375C72.171875 38.09375 85.784375 32.646875 99.69375 17.446875C100.234375 23.96875 98.825 31.809375 95.203125 38.09375C83.834375 58.425 63.240625 62.209375 47.128125 63.0375C46.846875 63.0375 46.5875 63.290625 46.29375 63.578125V84.459375L-0.04375 49.24375z" />
    <glyph glyph-name="facebook-share"
      unicode="&#xE63F;"
      horiz-adv-x="46.875" d=" M46.665625 100V78.334375H34.33125C30.33125 75.66875 30.996875 74 30.996875 72.66875C30.996875 70.66875 30.996875 69.66875 32.33125 68.334375H45.33125V47.334375H31.665625V0H9.33125L9.996875 46.665625C6.996875 47.33125 2.996875 47.33125 -0.003125 46.665625V68.665625C2.996875 68 6.6625 68 10.6625 68.665625V87.33125C11.6625 93.665625 20.996875 99.33125 26.6625 99.996875H46.6625z" />
    <glyph glyph-name="twitter-share"
      unicode="&#xE640;"
      horiz-adv-x="100" d=" M86 84.665625C88.665625 84.665625 93.665625 87.33125 97.334375 89C96.334375 87.334375 95.66875 84.665625 93 82V79.334375C93 79.334375 92 78.334375 94.665625 78.334375C96.33125 78.334375 98 80 100 80C88.665625 74.665625 90.334375 63.665625 88.665625 56.665625C80.665625 19.33125 57.33125 8 30.33125 8C20.665625 8 9.33125 9.665625 -0.003125 15.665625C6.996875 17.33125 18.996875 16.665625 26.996875 25.33125C22.6625 28.665625 11.33125 32.33125 9.6625 39.996875C10.6625 39.996875 11.328125 38.996875 12.996875 38.996875C12.996875 39.996875 13.996875 40.6625 14.6625 41.6625C10.328125 46.6625 2.6625 53.328125 2.6625 55.328125V61.328125C4.328125 60.328125 6.328125 60.328125 7.996875 59.6625L9.6625 61.328125C1.996875 65.6625 2.6625 74.328125 2.6625 77.6625C2.6625 79.328125 3.6625 83.6625 4.328125 86.328125C16.6625 73.99375 33.99375 67.99375 46.99375 64.6625C48.659375 66.328125 48.659375 68.996875 48.659375 70.6625C50.325 85.328125 57.325 91.328125 68.659375 91.328125C76.659375 91.6625 83.325 84.6625 85.99375 84.6625z" />
    <glyph glyph-name="h-bullets"
      unicode="&#xE641;"
      horiz-adv-x="103.125" d=" M1.415625 49.209375C1.415625 54.709375 5.915625 59.209375 11.415625 59.209375S21.415625 54.709375 21.415625 49.209375S16.915625 39.209375 11.415625 39.209375S1.415625 43.709375 1.415625 49.209375zM41.415625 49.209375C41.415625 54.709375 45.915625 59.209375 51.415625 59.209375S61.415625 54.709375 61.415625 49.209375S56.915625 39.209375 51.415625 39.209375S41.415625 43.709375 41.415625 49.209375zM81.415625 49.209375C81.415625 54.709375 85.915625 59.209375 91.415625 59.209375S101.415625 54.709375 101.415625 49.209375S96.915625 39.209375 91.415625 39.209375S81.415625 43.709375 81.415625 49.209375z" />
    <glyph glyph-name="filter"
      unicode="&#xE642;"
      horiz-adv-x="134.375" d=" M129.284375 19.284375C135 20 135.7125 16.428125 135.7125 13.56875C135.7125 12.140625 135.7125 7.853125 132.140625 7.140625H69.996875C70.7125 8.56875 71.425 11.425 71.425 13.56875C71.425 14.996875 70.709375 17.853125 69.996875 19.284375H129.28125zM30.715625 19.284375V7.140625H3.571875C-0.7125 7.85625 0 12.140625 0 13.56875C0 15.7125 0 19.996875 5.715625 19.284375H30.715625zM63.571875 12.85625C63.571875 5 57.14375 0 50.715625 0S37.859375 6.428125 37.859375 12.85625C37.859375 21.428125 43.575 25.7125 50.715625 25.7125C58.571875 25.7125 63.571875 19.284375 63.571875 12.85625zM132.14375 55.715625C135 53.571875 135.715625 52.14375 135.715625 50.715625S135 47.859375 132.14375 44.2875H121.428125V55.715625H132.14375zM82.85625 55.715625V43.571875H3.571875C0 47.14375 0 48.571875 0 50.715625S0 57.14375 5 56.43125H82.85625zM115.715625 50.715625C115.715625 42.14375 107.14375 37.14375 102.14375 37.14375C93.571875 37.14375 90 45.715625 90 50.715625C90 57.14375 95 63.571875 102.14375 63.571875C110.715625 62.85625 115.715625 55 115.715625 50.715625zM130 92.85625C135 93.571875 135.715625 89.284375 135.715625 87.140625C135.715625 82.85625 133.571875 80.7125 129.2875 80.7125H52.859375V92.85625H130.003125zM13.571875 92.85625V80.7125H4.2875C-0.7125 81.428125 0.003125 85.7125 0.003125 87.140625S-0.7125 92.140625 3.575 92.85625H13.575zM46.428125 87.14375C46.428125 79.2875 40 74.2875 33.571875 74.2875C25 74.2875 20.715625 81.43125 20.715625 87.14375C20.715625 94.2875 25.715625 100 33.571875 100S46.428125 93.571875 46.428125 87.14375z" />
    <glyph glyph-name="gmail"
      unicode="&#xE643;"
      horiz-adv-x="96.875" d=" M14.590625 80.803125H5.26875V18.3875H14.996875V67.025L47.421875 41.896875L79.846875 67.025V18.3875H89.978125V80.803125H80.25L47.421875 54.8625L14.59375 80.803125zM94.434375 85.2625V14.740625H0.809375V85.2625H94.434375z" />
    <glyph glyph-name="trophy"
      unicode="&#xE644;"
      horiz-adv-x="100" d=" M82.040625 84.08125C88.571875 83.671875 92.24375 81.225 92.24375 73.46875V73.46875C92.24375 66.53125 86.528125 61.63125 79.590625 60C81.221875 63.265625 81.63125 67.346875 82.040625 71.021875C82.040625 71.43125 82.040625 72.246875 82.040625 72.653125V84.08125zM73.878125 51.021875C86.940625 51.43125 100.409375 59.184375 100.409375 73.471875V73.471875C100.409375 89.390625 88.571875 91.840625 81.225 92.246875C79.184375 97.14375 74.2875 100.409375 68.98125 100.409375H31.43125C26.125 100.409375 21.228125 97.14375 19.1875 92.246875C11.43125 91.43125 0.003125 88.165625 0.003125 73.471875C0.003125 73.471875 0.003125 73.471875 0.003125 73.471875V73.471875C0.003125 73.471875 0.003125 73.0625 0.003125 73.0625C0.4125 60 11.43125 51.021875 26.125 51.021875H26.534375C28.984375 48.98125 31.840625 47.35 35.5125 46.125V31.43125H27.35C20.003125 31.43125 14.2875 25.309375 14.2875 17.9625V13.471875C14.2875 6.125 20.003125 0.003125 27.35 0.003125H73.065625C80.4125 0.003125 86.128125 6.125 86.128125 13.471875V17.9625C86.128125 25.309375 80.4125 31.43125 73.065625 31.43125H64.903125V46.125C68.575 47.35 71.434375 48.98125 73.88125 51.021875zM42.85625 31.021875V52.246875C30.6125 53.878125 26.528125 59.184375 25.7125 72.65625V72.65625V86.125C25.7125 89.390625 28.1625 92.246875 31.428125 92.246875H68.571875C71.8375 92.246875 74.2875 89.390625 74.2875 86.125V72.65625C73.471875 59.59375 68.98125 53.88125 57.14375 52.246875V31.021875H42.859375zM20.409375 59.184375C13.471875 60.815625 7.75625 65.715625 7.75625 73.46875C7.75625 80.815625 11.8375 83.265625 17.959375 84.08125V73.059375C17.959375 72.65 17.959375 71.834375 17.959375 71.428125C18.36875 66.9375 19.184375 63.265625 20.409375 59.184375zM73.0625 23.265625C75.91875 23.265625 78.36875 20.815625 78.36875 17.959375V13.46875C78.36875 10.6125 75.91875 8.1625 73.0625 8.1625H27.346875C24.490625 8.1625 22.040625 10.6125 22.040625 13.46875V17.959375C22.040625 20.815625 24.490625 23.265625 27.346875 23.265625H73.0625z" />
    <glyph glyph-name="bubbles"
      unicode="&#xE645;"
      horiz-adv-x="143.75" d=" M92.175 81.740625C75.653125 81.740625 62.609375 69.565625 62.609375 53.915625C62.609375 46.959375 65.21875 40.871875 69.565625 35.65625C69.565625 39.134375 77.390625 78.265625 117.390625 68.7C112.171875 76.525 102.609375 81.74375 92.171875 81.74375zM132.175 22.609375C132.175 26.95625 141.740625 36.521875 141.740625 50.434375C141.740625 76.521875 120.871875 100 91.30625 100C83.48125 100 77.39375 98.2625 71.30625 96.521875C65.21875 98.259375 58.2625 100 50.4375 100C24.35 100 0.871875 80.86875 0.871875 51.303125C0.871875 41.7375 4.35 29.5625 10.4375 21.7375C6.090625 18.259375 0.003125 14.78125 0.003125 8.69375C0.003125 1.7375 4.35 -0.871875 11.30625 -0.871875C13.915625 -0.871875 30.4375 3.475 33.046875 3.475C36.525 3.475 47.828125 0.865625 51.30625 0.865625C58.2625 0.865625 64.35 2.603125 70.4375 5.2125C76.525 2.603125 83.48125 0.865625 90.4375 0.865625C93.046875 0.865625 104.35 3.475 107.828125 3.475C110.4375 3.475 128.696875 -0.871875 131.30625 -0.871875S142.609375 -0.871875 142.609375 8.69375C142.609375 14.78125 132.175 19.128125 132.175 22.60625zM49.565625 10.434375C43.478125 10.434375 37.390625 12.171875 31.30625 14.78125C25.21875 9.5625 6.0875 8.69375 6.0875 8.69375C16.521875 13.040625 20 19.128125 20.86875 21.7375C13.9125 29.5625 8.69375 39.996875 8.69375 51.303125C8.69375 73.04375 26.953125 91.303125 49.5625 91.303125C53.040625 91.303125 56.51875 91.303125 59.996875 90.434375C48.69375 81.7375 40.865625 68.69375 40.865625 52.175C41.734375 36.521875 48.690625 21.740625 60.865625 12.175C57.3875 11.30625 53.909375 10.4375 49.5625 10.4375zM109.565625 14.78125C106.0875 14.78125 93.04375 11.303125 91.30625 11.303125C87.828125 11.303125 85.21875 11.303125 81.740625 12.171875S74.784375 14.78125 71.30625 16.51875C59.13125 23.475 50.4375 36.51875 50.4375 50.43125C50.4375 66.084375 59.134375 78.25625 71.30625 85.2125C74.784375 87.821875 78.2625 88.690625 81.740625 89.559375C84.35 90.428125 87.828125 90.428125 90.4375 90.428125C114.784375 90.428125 132.178125 71.296875 132.178125 51.296875C132.178125 35.64375 119.134375 22.6 119.134375 21.73125C119.134375 19.121875 128.7 11.296875 133.046875 8.6875C125.221875 10.425 111.309375 14.775 109.56875 14.775z" />
    <glyph glyph-name="home"
      unicode="&#xE646;"
      horiz-adv-x="93.75" d=" M14.0625 7.609375H19.496875C22.215625 7.609375 24.3875 9.784375 24.3875 12.5V34.240625C24.3875 47.284375 34.16875 46.196875 36.34375 46.196875H57.540625C59.715625 46.196875 69.496875 47.284375 69.496875 34.240625V12.5C69.496875 9.78125 71.671875 8.153125 73.84375 8.153125H79.278125C81.996875 8.153125 84.16875 10.328125 84.16875 13.04375V51.0875C84.16875 51.63125 84.16875 52.175 83.625 52.71875L51.015625 85.328125C48.840625 87.503125 45.58125 87.503125 43.40625 85.328125L10.253125 52.71875C9.709375 52.175 9.165625 50.54375 9.165625 49.459375V12.503125C9.165625 9.784375 11.340625 7.6125 14.05625 7.6125zM43.409375 98.36875C43.409375 98.36875 43.409375 98.9125 43.953125 98.9125C44.496875 99.45625 45.584375 100 46.671875 100S48.846875 99.45625 49.390625 98.9125C49.390625 98.9125 49.934375 98.36875 49.934375 98.36875L90.153125 57.065625C91.240625 56.521875 91.784375 55.434375 91.784375 54.346875V54.346875V54.346875V12.5C91.784375 10.325 92.871875 0 79.828125 0.54375H73.30625C60.2625 0.54375 61.35 10.325 61.35 12.5V32.609375C61.35 35.86875 58.63125 39.13125 54.828125 39.13125H36.89375C33.634375 39.13125 31.459375 36.4125 31.459375 33.696875V13.04375C31.459375 10.86875 32.546875 1.0875 19.503125 1.0875H13.525C0.48125 1.0875 1.56875 10.86875 1.56875 13.04375V53.803125C1.56875 54.890625 2.1125 55.978125 3.2 56.521875L43.41875 98.36875z" />
    <glyph glyph-name="list"
      unicode="&#xE647;"
      horiz-adv-x="100" d=" M0 100H100V83.334375H0V100zM0 58.334375H100V41.66875H0V58.334375zM0 16.665625H100V0H0V16.665625z" />
    <glyph glyph-name="grid"
      unicode="&#xE648;"
      horiz-adv-x="100" d=" M0 100H41.665625V58.334375H0V100zM58.334375 100H100V58.334375H58.334375V100zM58.334375 41.665625H100V0H58.334375V41.665625zM0 41.665625H41.665625V0H0V41.665625z" />
    <glyph glyph-name="arrow-left"
      unicode="&#xE649;"
      horiz-adv-x="100" d=" M50 100L0 50L50 0V33.334375H100V66.66875H50z" />
    <glyph glyph-name="arrow-right"
      unicode="&#xE64A;"
      horiz-adv-x="100" d=" M50 0L100 50L50 100V66.665625H0V33.33125H50z" />
    <glyph glyph-name="arrow-bottom"
      unicode="&#xE64B;"
      horiz-adv-x="100" d=" M0 50L50 0L100 50H66.665625V100H33.33125V50z" />
    <glyph glyph-name="arrow-top"
      unicode="&#xE64C;"
      horiz-adv-x="100" d=" M100 50L50 100L0 50H33.334375V0H66.66875V50z" />
    </font>
</defs>
</svg>
